<svg id="Layer_1" data-name="Layer 1" xmlns="http://www.w3.org/2000/svg" viewBox="0 0 295 38.24"><defs><style>.cls-1{fill:#014e75;}.cls-2{fill:#b3280b;}</style></defs><path class="cls-1" d="M161.07,4.78a18,18,0,0,0-12.62,6.71,18.49,18.49,0,0,0-4.38,12.33,18.53,18.53,0,0,0,5.61,13.72,17.83,17.83,0,0,0,7.69,4.66,20.65,20.65,0,0,0,9.76.26,19.42,19.42,0,0,0,12.66-10.25,20.14,20.14,0,0,0,1.38-12.73,19,19,0,0,0-6-10,17.8,17.8,0,0,0-10.9-4.66A13.42,13.42,0,0,0,161.07,4.78ZM165.79,7a16.38,16.38,0,0,1,10.61,7.19A16.38,16.38,0,0,1,179,20.26a13.47,13.47,0,0,1,.26,3.59,15.1,15.1,0,0,1-.83,5.75,17.21,17.21,0,0,1-10.5,10.56,13.54,13.54,0,0,1-5.15.69,13.77,13.77,0,0,1-5.49-.81,16.91,16.91,0,0,1-10-10.56,19.13,19.13,0,0,1,0-11.43,19.3,19.3,0,0,1,2.24-4.35A15.83,15.83,0,0,1,161,6.78,24.77,24.77,0,0,1,165.79,7Z" transform="translate(-1 -4.68)"/><path class="cls-1" d="M203.26,4.78a18,18,0,0,0-12.62,6.71,18.54,18.54,0,0,0-4.38,12.33,18.53,18.53,0,0,0,5.61,13.72,17.78,17.78,0,0,0,9.66,5.12,22.63,22.63,0,0,0,7.51-.14,18.08,18.08,0,0,0,13.13-12,24.32,24.32,0,0,0,1.18-6.66l.07-1.09H205v1.91h16.08L221,25.78a16,16,0,0,1-4.34,10.11,15.59,15.59,0,0,1-8,4.66,12.57,12.57,0,0,1-3.67.3,13.29,13.29,0,0,1-3.58-.26,16,16,0,0,1-10.15-7.23A18,18,0,0,1,189,20a17.38,17.38,0,0,1,8.93-11.7,17,17,0,0,1,8.69-1.5,16.63,16.63,0,0,1,10.27,4.53l1,1,.77-.76.76-.76-1.1-1.07a18.57,18.57,0,0,0-12.6-5A20.82,20.82,0,0,0,203.26,4.78Z" transform="translate(-1 -4.68)"/><path class="cls-1" d="M245.46,4.79a16.9,16.9,0,0,0-6.2,1.67,16.32,16.32,0,0,0-5.09,3.69,18.15,18.15,0,0,0-3.68,4.94A20.13,20.13,0,0,0,230.68,33a18.05,18.05,0,0,0,3.5,4.6,17,17,0,0,0,9.36,5.06,14.85,14.85,0,0,0,3.66.26,15.23,15.23,0,0,0,3.68-.26,18.33,18.33,0,0,0,10.36-6A17.94,17.94,0,0,0,266,24.5a17.65,17.65,0,0,0-2-9.42,17.33,17.33,0,0,0-3.18-4.45,17.73,17.73,0,0,0-12-5.84A13.48,13.48,0,0,0,245.46,4.79Zm3.43,2A16.13,16.13,0,0,1,261,14.31a17.66,17.66,0,0,1,1.88,15.24A17.14,17.14,0,0,1,252.5,40.1a13.42,13.42,0,0,1-5.3.75,13.56,13.56,0,0,1-5.13-.68,16.77,16.77,0,0,1-10.29-10.36,15.38,15.38,0,0,1-.91-6,14.59,14.59,0,0,1,.26-3.56,16.34,16.34,0,0,1,2.56-6.2A15.86,15.86,0,0,1,248.89,6.8Z" transform="translate(-1 -4.68)"/><path class="cls-2" d="M1,7.36V9.71H5.26V42.25H10V5H1Z" transform="translate(-1 -4.68)"/><path class="cls-1" d="M124.1,18.84c0,8.51,0,13.83.11,14.4a10,10,0,0,0,3.11,6.43A8.85,8.85,0,0,0,131.49,42c.75.19,1.28.21,5.37.21h4.52V40.48l-4.18,0a27.73,27.73,0,0,1-4.91-.24,8,8,0,0,1-5.63-6l-.26-.9,0-14,0-14H124.1Z" transform="translate(-1 -4.68)"/><path class="cls-1" d="M278.67,5.49c-3.2.51-5.62,2.09-6.69,4.39a7.29,7.29,0,0,0-.71,3.82,7.88,7.88,0,0,0,.25,2.57,9.21,9.21,0,0,0,4.38,5.46c1,.55.38.35,6.87,2.44,5.62,1.8,6.1,2,7.26,2.75a7.52,7.52,0,0,1,3.25,3.95,5.51,5.51,0,0,1,.32,2.41,5.7,5.7,0,0,1-.26,2.26A6.14,6.14,0,0,1,290,39.17a11.62,11.62,0,0,1-4.22,1.06c-.71.06-4.29.12-7.94.12h-6.65v1.9h7.61c6.19,0,7.8,0,8.72-.16,4.32-.65,7.16-2.83,8.13-6.23a12.84,12.84,0,0,0,.18-4.83A8.93,8.93,0,0,0,291,24.72c-.45-.24-2.88-1.1-6.26-2.2-3-1-5.9-2-6.35-2.19a7.79,7.79,0,0,1-4.62-4.86,10.3,10.3,0,0,1,0-3.42,6.25,6.25,0,0,1,1.44-2.76,5.19,5.19,0,0,1,2.24-1.37c1.51-.51,2.42-.56,9.7-.56h6.81v-2h-7.15C281.6,5.36,279.31,5.4,278.67,5.49Z" transform="translate(-1 -4.68)"/><path class="cls-2" d="M32,11a16.75,16.75,0,0,0-5.28,1.22A15.88,15.88,0,0,0,17.45,24a19.25,19.25,0,0,0,0,5.36,16,16,0,0,0,4.27,8.28A14.48,14.48,0,0,0,33,42.37a15,15,0,0,0,9.48-3,25.72,25.72,0,0,0,3.94-3.84,13.38,13.38,0,0,0,2.2-5.27,26.19,26.19,0,0,0,0-6.62A15.64,15.64,0,0,0,38.41,11.87a16,16,0,0,0-3.91-.81A11.35,11.35,0,0,0,32,11Zm3.14,8.29a7.22,7.22,0,0,1,4.69,3.75,7.59,7.59,0,0,1,.88,3.31,7.59,7.59,0,0,1-5,7.76,6.61,6.61,0,0,1-2.69.32,5.8,5.8,0,0,1-2.75-.35,7.43,7.43,0,0,1-5-6.89,7.14,7.14,0,0,1,.63-3.55A7.69,7.69,0,0,1,31,19.31,13.43,13.43,0,0,1,35.11,19.32Z" transform="translate(-1 -4.68)"/><path class="cls-2" d="M66.42,11.06a15.12,15.12,0,0,0-9.84,4.75A15.31,15.31,0,0,0,52.2,26a14.51,14.51,0,0,0,1.6,7.52,16.26,16.26,0,0,0,3.31,4.54,14.36,14.36,0,0,0,8.24,4.11,24.9,24.9,0,0,0,6.12-.12,15.31,15.31,0,0,0,6-2.65A23.75,23.75,0,0,0,82,34.76a16.81,16.81,0,0,0,.92-13.65,15.82,15.82,0,0,0-8.07-8.68A17.4,17.4,0,0,0,66.42,11.06Zm3.73,8.29a7,7,0,0,1,4.75,4,7.47,7.47,0,0,1,.72,3.45,7.91,7.91,0,0,1-.78,3.62,7.1,7.1,0,0,1-4.9,3.92,11,11,0,0,1-4.13-.05,7.66,7.66,0,0,1-5.24-4.94,7.92,7.92,0,0,1,1.51-7.62,7.16,7.16,0,0,1,3.71-2.37A10.85,10.85,0,0,1,70.15,19.35Z" transform="translate(-1 -4.68)"/><path class="cls-2" d="M101.88,11a15.78,15.78,0,0,0-7.25,2.23A16.05,16.05,0,0,0,87.35,24a19,19,0,0,0,0,5.33,15.94,15.94,0,0,0,4.37,8.39A14.45,14.45,0,0,0,103,42.37c5.11,0,8.89-1.76,12.62-5.88,2.37-2.62,3.38-5.89,3.22-10.34a14.62,14.62,0,0,0-1.74-6.71,15.3,15.3,0,0,0-12.65-8.38A11.85,11.85,0,0,0,101.88,11ZM105,19.32a7.22,7.22,0,0,1,4.69,3.75,7.55,7.55,0,0,1,.87,3.1,7.6,7.6,0,0,1-5,8,10.09,10.09,0,0,1-4.73.17A7.24,7.24,0,0,1,98,33a7.85,7.85,0,0,1,2.83-13.64A13.43,13.43,0,0,1,105,19.32Z" transform="translate(-1 -4.68)"/></svg>