<?xml version="1.0" encoding="utf-8"?>
<!-- Generator: Adobe Illustrator 26.0.3, SVG Export Plug-In . SVG Version: 6.00 Build 0)  -->
<svg version="1.1" xmlns="http://www.w3.org/2000/svg" xmlns:xlink="http://www.w3.org/1999/xlink" x="0px" y="0px"
	 viewBox="0 0 81 70" style="enable-background:new 0 0 81 70;" xml:space="preserve">
<style type="text/css">
	.st0{fill:none;stroke:#EFEFEF;}
	.st1{fill:#014E75;}
</style>
<g id="Layer_1">
	<line class="st0" x1="0.5" y1="0" x2="0.5" y2="70"/>
	<line class="st0" x1="80.5" y1="0" x2="80.5" y2="70"/>
</g>
<g id="Layer_2">
	<g id="color_00000170982022160797430440000014222258867235869109_">
		<path class="st1" d="M43.2,27.7c-0.1,1-0.5,1.8-1.2,2.5c-0.8,0.8-1.9,1.2-3,1.2c-2.3,0-4.3-1.9-4.3-4.3c0-1.1,0.4-2.3,1.2-3
			c0.7-0.7,1.6-1.1,2.5-1.2l0.4-0.1l0.7-4.9h-0.7c-5,0-9.1,4.2-9.1,9.2c0,5.1,4.1,9.2,9.2,9.2s9.2-4.1,9.2-9.2v-0.7l-5,0.7
			C43.2,27.1,43.2,27.7,43.2,27.7z M38.3,19.2l-0.4,2.5c-0.9,0.2-1.7,0.5-2.3,1.1l-1.7-1.7C35.1,20,36.6,19.3,38.3,19.2z M32.9,21.9
			l1.7,1.7c-0.7,0.8-1,1.8-1.2,2.9H31C31.2,24.9,31.8,23.2,32.9,21.9z M31,27.8h2.4c0.1,1,0.5,2,1.2,2.9l-1.7,1.7
			C31.8,31.1,31.2,29.5,31,27.8z M38.4,35.1c-1.7-0.1-3.3-0.8-4.6-1.9l1.7-1.7c0.8,0.7,1.8,1,2.9,1.2V35.1z M39.6,35.1v-2.4
			c1-0.1,2-0.5,2.9-1.2l1.7,1.7C42.9,34.4,41.3,35,39.6,35.1z M44.4,28.3l2.5-0.3c-0.2,1.7-0.8,3.2-1.9,4.4l-1.7-1.7
			C43.9,29.9,44.2,29.1,44.4,28.3z"/>
		<path class="st1" d="M50.1,16c-0.7-0.7-1.9-0.7-2.6,0l-1.1,1.1l-0.9-0.9l-2.6,2.6l0.9,0.9L38,25.6v2.6h2.6l5.8-5.8l0.9,0.9
			l2.6-2.6L49,19.8l1.1-1.1C50.8,17.9,50.8,16.7,50.1,16z M40,27h-0.9v-0.9l5.5-5.5l0.9,0.9L40,27z M47.2,21.5l-2.6-2.6l0.9-0.9
			l2.6,2.6L47.2,21.5z M49.2,17.8l-1.1,1.1L47.2,18l1.1-1.1c0.3-0.3,0.6-0.3,0.9,0C49.5,17.2,49.5,17.5,49.2,17.8z"/>
	</g>
</g>
<g id="Layer_3">
	<g id="color">
		<path class="st1" d="M24.4,58c-0.9,0-1.6-0.2-2.3-0.5c-0.6-0.4-1.1-0.9-1.4-1.5c-0.3-0.7-0.5-1.4-0.5-2.3c0-0.9,0.2-1.7,0.5-2.3
			c0.3-0.6,0.8-1.1,1.4-1.5c0.6-0.4,1.4-0.5,2.3-0.5c0.6,0,1.1,0.1,1.6,0.3c0.5,0.2,0.9,0.4,1.2,0.7l-0.5,1.2
			c-0.4-0.3-0.7-0.5-1.1-0.6c-0.3-0.3-0.7-0.4-1.1-0.4c-0.9,0-1.5,0.3-2,0.8c-0.4,0.5-0.7,1.2-0.7,2.2s0.2,1.7,0.7,2.2
			s1.1,0.8,2,0.8c0.4,0,0.8-0.1,1.2-0.2c0.4-0.1,0.7-0.4,1.1-0.7l0.5,1.2c-0.3,0.3-0.8,0.6-1.2,0.7C25.6,57.9,25,58,24.4,58z
			 M28.2,53.6c0-0.9,0.2-1.7,0.5-2.3c0.3-0.7,0.7-1.2,1.4-1.5c0.6-0.4,1.3-0.5,2.2-0.5c0.8,0,1.6,0.2,2.2,0.5c0.5,0.3,1,0.8,1.3,1.5
			c0.3,0.6,0.5,1.4,0.5,2.3s-0.2,1.7-0.5,2.3c-0.3,0.6-0.8,1.2-1.4,1.5c-0.6,0.4-1.3,0.5-2.2,0.5c-0.8,0-1.6-0.2-2.2-0.5
			c-0.6-0.4-1.1-0.9-1.4-1.5C28.3,55.2,28.2,54.5,28.2,53.6z M29.8,53.6c0,1,0.2,1.7,0.6,2.2c0.4,0.5,1,0.8,1.8,0.8s1.4-0.3,1.8-0.8
			c0.4-0.5,0.6-1.3,0.6-2.2c0-1-0.2-1.7-0.6-2.2c-0.4-0.6-1-0.8-1.8-0.8s-1.4,0.3-1.8,0.8S29.8,52.6,29.8,53.6z M37.9,57.8v-8.4h1.5
			v7.2h4v1.3L37.9,57.8L37.9,57.8z M43.9,53.6c0-0.9,0.2-1.7,0.5-2.3c0.3-0.6,0.8-1.1,1.4-1.5c0.6-0.4,1.3-0.5,2.2-0.5
			c0.8,0,1.6,0.2,2.2,0.5c0.6,0.4,1.1,0.9,1.4,1.5c0.3,0.6,0.5,1.4,0.5,2.3s-0.2,1.7-0.5,2.3c-0.3,0.6-0.8,1.2-1.4,1.5
			c-0.6,0.4-1.3,0.5-2.2,0.5c-0.8,0-1.6-0.2-2.2-0.5c-0.6-0.4-1.1-0.9-1.4-1.5C44,55.2,43.9,54.5,43.9,53.6z M45.5,53.6
			c0,1,0.2,1.7,0.6,2.2c0.4,0.5,1,0.8,1.8,0.8s1.4-0.3,1.8-0.8c0.4-0.5,0.6-1.3,0.6-2.2c0-1-0.2-1.7-0.6-2.2c-0.4-0.5-1-0.8-1.8-0.8
			s-1.4,0.3-1.8,0.8S45.5,52.6,45.5,53.6z M53.6,57.8v-8.4h3.7c0.9,0,1.6,0.2,2.1,0.7c0.5,0.4,0.8,1.1,0.8,1.8c0,0.5-0.1,1-0.3,1.3
			c-0.2,0.4-0.5,0.7-1,0.9c-0.4,0.2-0.9,0.3-1.5,0.3l0.2-0.2H58c0.3,0,0.6,0.1,0.9,0.3s0.5,0.4,0.6,0.8l1.2,2.7H59l-1.2-2.7
			c-0.1-0.3-0.3-0.5-0.5-0.6c-0.2-0.1-0.5-0.1-0.8-0.1h-1.3V58h-1.6V57.8z M55.1,53.3H57c0.5,0,1-0.1,1.2-0.3c0.3-0.2,0.4-0.6,0.4-1
			c0-0.4-0.1-0.8-0.4-1c-0.2-0.3-0.6-0.4-1.2-0.4h-1.9V53.3z"/>
	</g>
</g>
</svg>
