<?xml version="1.0" encoding="utf-8"?>
<!-- Generator: Adobe Illustrator 26.0.3, SVG Export Plug-In . SVG Version: 6.00 Build 0)  -->
<svg version="1.1" id="Layer_1" xmlns="http://www.w3.org/2000/svg" xmlns:xlink="http://www.w3.org/1999/xlink" x="0px" y="0px"
	 viewBox="0 0 81 70" style="enable-background:new 0 0 81 70;" xml:space="preserve">
<style type="text/css">
	.st0{fill:none;stroke:#EFEFEF;}
	.st1{fill:#014E75;}
</style>
<line class="st0" x1="0.5" y1="0" x2="0.5" y2="70"/>
<line class="st0" x1="80.5" y1="0" x2="80.5" y2="70"/>
<path class="st1" d="M12.5,58c-0.9,0-1.6-0.2-2.3-0.5c-0.6-0.4-1.1-0.9-1.4-1.5c-0.3-0.7-0.5-1.4-0.5-2.3s0.2-1.7,0.5-2.3
	c0.3-0.6,0.8-1.1,1.4-1.5c0.6-0.4,1.4-0.5,2.3-0.5c0.6,0,1.1,0.1,1.6,0.3c0.5,0.2,0.9,0.4,1.2,0.7l-0.5,1.2
	c-0.4-0.3-0.7-0.5-1.1-0.6c-0.3-0.1-0.7-0.2-1.2-0.2c-0.9,0-1.5,0.3-2,0.8c-0.4,0.5-0.7,1.2-0.7,2.2s0.2,1.7,0.7,2.2
	c0.5,0.5,1.1,0.8,2,0.8c0.4,0,0.8-0.1,1.2-0.2c0.4-0.1,0.7-0.4,1.1-0.7l0.5,1.2c-0.3,0.3-0.8,0.6-1.2,0.7C13.6,57.9,13.1,58,12.5,58
	z M16.2,53.6c0-0.9,0.2-1.7,0.5-2.3c0.3-0.6,0.8-1.1,1.4-1.5c0.6-0.4,1.3-0.5,2.2-0.5c0.8,0,1.6,0.2,2.2,0.5
	c0.6,0.4,1.1,0.9,1.4,1.5c0.3,0.6,0.5,1.4,0.5,2.3c0,0.9-0.2,1.7-0.5,2.3c-0.3,0.6-0.8,1.2-1.4,1.5S21.1,58,20.3,58
	c-0.8,0-1.6-0.2-2.2-0.5c-0.6-0.4-1.1-0.9-1.4-1.5C16.4,55.2,16.2,54.5,16.2,53.6z M17.8,53.6c0,1,0.2,1.7,0.6,2.2
	c0.4,0.5,1,0.8,1.8,0.8c0.8,0,1.4-0.3,1.8-0.8c0.4-0.5,0.6-1.3,0.6-2.2c0-1-0.2-1.7-0.6-2.2c-0.4-0.5-1-0.8-1.8-0.8
	c-0.8,0-1.4,0.3-1.8,0.8C18,51.9,17.8,52.6,17.8,53.6z M25.9,57.8v-8.5h1.4l3.1,7H30l3.1-7h1.3v8.5h-1.4v-6.3h0.4l-2.8,6.3h-0.9
	l-2.8-6.3h0.4v6.3H25.9z M36.4,57.8v-8.5h3.8c0.9,0,1.6,0.2,2.1,0.7c0.5,0.4,0.7,1.1,0.7,1.8c0,0.8-0.2,1.4-0.7,1.8
	s-1.2,0.7-2.1,0.7h-2.2v3.4H36.4z M37.9,53.2h2c0.5,0,0.9-0.1,1.2-0.3c0.3-0.2,0.4-0.6,0.4-1s-0.1-0.7-0.4-1
	c-0.3-0.2-0.6-0.3-1.2-0.3h-2V53.2z M44.4,57.8v-8.5h3.7c0.9,0,1.6,0.2,2.1,0.7c0.5,0.4,0.8,1.1,0.8,1.8c0,0.5-0.1,1-0.3,1.3
	c-0.2,0.4-0.5,0.7-1,0.9c-0.4,0.2-0.9,0.3-1.5,0.3l0.2-0.2h0.4c0.3,0,0.6,0.1,0.9,0.3c0.3,0.2,0.5,0.4,0.6,0.8l1.2,2.7h-1.7
	l-1.2-2.7c-0.1-0.3-0.3-0.5-0.5-0.6c-0.2-0.1-0.5-0.1-0.8-0.1h-1.3v3.4H44.4z M45.9,53.3h1.9c0.5,0,1-0.1,1.2-0.3
	c0.3-0.2,0.4-0.6,0.4-1c0-0.4-0.1-0.8-0.4-1c-0.3-0.2-0.7-0.3-1.2-0.3h-1.9V53.3z M52.8,57.8v-8.5h5.7v1.2h-4.2v2.3h3.9v1.2h-3.9
	v2.5h4.2v1.2H52.8z M62.8,58c-0.7,0-1.3-0.1-1.9-0.3c-0.6-0.2-1.1-0.4-1.5-0.7l0.5-1.2c0.3,0.2,0.6,0.4,0.9,0.5
	c0.3,0.1,0.6,0.2,0.9,0.3c0.3,0.1,0.7,0.1,1.1,0.1c0.6,0,1.1-0.1,1.4-0.3c0.3-0.2,0.4-0.5,0.4-0.8c0-0.3-0.1-0.5-0.3-0.7
	c-0.2-0.2-0.5-0.3-1-0.4l-1.4-0.3c-0.8-0.2-1.4-0.4-1.7-0.8s-0.6-0.9-0.6-1.5c0-0.5,0.1-1,0.4-1.4c0.3-0.4,0.7-0.7,1.2-0.9
	c0.5-0.2,1.1-0.3,1.8-0.3c0.6,0,1.2,0.1,1.7,0.3c0.5,0.2,0.9,0.4,1.3,0.7l-0.5,1.2c-0.3-0.3-0.7-0.5-1.1-0.6
	c-0.4-0.1-0.9-0.2-1.4-0.2c-0.6,0-1,0.1-1.3,0.3c-0.3,0.2-0.5,0.5-0.5,0.9c0,0.3,0.1,0.5,0.3,0.7c0.2,0.2,0.5,0.3,1,0.4l1.3,0.3
	c0.8,0.2,1.4,0.4,1.8,0.8c0.4,0.4,0.6,0.8,0.6,1.5c0,0.5-0.1,0.9-0.4,1.3c-0.3,0.4-0.7,0.7-1.2,0.9C64,57.8,63.4,58,62.8,58z
	 M70.5,58c-0.7,0-1.3-0.1-1.9-0.3c-0.6-0.2-1.1-0.4-1.5-0.7l0.5-1.2c0.3,0.2,0.6,0.4,0.9,0.5c0.3,0.1,0.6,0.2,0.9,0.3
	c0.3,0.1,0.7,0.1,1.1,0.1c0.6,0,1.1-0.1,1.4-0.3s0.4-0.5,0.4-0.8c0-0.3-0.1-0.5-0.3-0.7c-0.2-0.2-0.5-0.3-1-0.4l-1.4-0.3
	c-0.8-0.2-1.4-0.4-1.7-0.8s-0.6-0.9-0.6-1.5c0-0.5,0.1-1,0.4-1.4c0.3-0.4,0.7-0.7,1.2-0.9c0.5-0.2,1.1-0.3,1.8-0.3
	c0.6,0,1.2,0.1,1.7,0.3c0.5,0.2,0.9,0.4,1.3,0.7l-0.5,1.2c-0.3-0.3-0.7-0.5-1.1-0.6c-0.4-0.1-0.9-0.2-1.4-0.2c-0.6,0-1,0.1-1.3,0.3
	c-0.3,0.2-0.5,0.5-0.5,0.9c0,0.3,0.1,0.5,0.3,0.7c0.2,0.2,0.5,0.3,1,0.4l1.3,0.3c0.8,0.2,1.4,0.4,1.8,0.8c0.4,0.4,0.6,0.8,0.6,1.5
	c0,0.5-0.1,0.9-0.4,1.3c-0.3,0.4-0.7,0.7-1.2,0.9C71.8,57.8,71.2,58,70.5,58z"/>
<path class="st1" d="M30.3,19.9c-0.2,0-0.4-0.1-0.5-0.2s-0.2-0.3-0.2-0.5v-3c0-0.2,0.1-0.4,0.2-0.5s0.3-0.2,0.5-0.2h2.2
	c0.2,0,0.4,0.1,0.5,0.2c0.1,0.1,0.2,0.3,0.2,0.5c0,0.2-0.1,0.4-0.2,0.5c-0.1,0.1-0.3,0.2-0.5,0.2H31v2.2c0,0.2-0.1,0.4-0.2,0.5
	S30.5,19.9,30.3,19.9z M32.5,36.4h-2.2c-0.2,0-0.4-0.1-0.5-0.2c-0.1-0.1-0.2-0.3-0.2-0.5v-3c0-0.2,0.1-0.4,0.2-0.5
	c0.1-0.1,0.3-0.2,0.5-0.2c0.2,0,0.4,0.1,0.5,0.2c0.1,0.1,0.2,0.3,0.2,0.5v2.2h1.5c0.2,0,0.4,0.1,0.5,0.2c0.1,0.1,0.2,0.3,0.2,0.5
	c0,0.2-0.1,0.4-0.2,0.5C32.9,36.3,32.7,36.4,32.5,36.4z M49.8,19.9c-0.2,0-0.4-0.1-0.5-0.2c-0.1-0.1-0.2-0.3-0.2-0.5v-2.2h-1.5
	c-0.2,0-0.4-0.1-0.5-0.2c-0.1-0.1-0.2-0.3-0.2-0.5c0-0.2,0.1-0.4,0.2-0.5c0.1-0.1,0.3-0.2,0.5-0.2h2.2c0.2,0,0.4,0.1,0.5,0.2
	c0.1,0.1,0.2,0.3,0.2,0.5v3c0,0.2-0.1,0.4-0.2,0.5C50.2,19.8,50,19.9,49.8,19.9z M49.8,36.4h-2.2c-0.2,0-0.4-0.1-0.5-0.2
	c-0.1-0.1-0.2-0.3-0.2-0.5c0-0.2,0.1-0.4,0.2-0.5c0.1-0.1,0.3-0.2,0.5-0.2H49v-2.2c0-0.2,0.1-0.4,0.2-0.5c0.1-0.1,0.3-0.2,0.5-0.2
	c0.2,0,0.4,0.1,0.5,0.2c0.1,0.1,0.2,0.3,0.2,0.5v3c0,0.2-0.1,0.4-0.2,0.5C50.2,36.3,50,36.4,49.8,36.4z M47.5,31.9h-15
	c-0.2,0-0.4-0.1-0.5-0.2c-0.1-0.1-0.2-0.3-0.2-0.5v-5.2c0-0.2,0.1-0.4,0.2-0.5c0.1-0.1,0.3-0.2,0.5-0.2s0.4,0.1,0.5,0.2
	c0.1,0.1,0.2,0.3,0.2,0.5v4.5h13.5v-4.5c0-0.2,0.1-0.4,0.2-0.5c0.1-0.1,0.3-0.2,0.5-0.2c0.2,0,0.4,0.1,0.5,0.2
	c0.1,0.1,0.2,0.3,0.2,0.5v5.2c0,0.2-0.1,0.4-0.2,0.5C47.9,31.8,47.7,31.9,47.5,31.9z M47.5,23.6c-0.2,0-0.4-0.1-0.5-0.2
	c-0.1-0.1-0.2-0.3-0.2-0.5v-1.5H33.3v1.5c0,0.2-0.1,0.4-0.2,0.5c-0.1,0.1-0.3,0.2-0.5,0.2s-0.4-0.1-0.5-0.2
	c-0.1-0.1-0.2-0.3-0.2-0.5v-2.2c0-0.2,0.1-0.4,0.2-0.5c0.1-0.1,0.3-0.2,0.5-0.2h15c0.2,0,0.4,0.1,0.5,0.2c0.1,0.1,0.2,0.3,0.2,0.5
	v2.2c0,0.2-0.1,0.4-0.2,0.5C47.9,23.5,47.7,23.6,47.5,23.6z"/>
<path class="st1" d="M43.8,31.9c-0.1,0-0.2,0-0.3-0.1c-0.1,0-0.2-0.1-0.2-0.2l-4.8-4.8l-4.7,4c-0.1,0.1-0.2,0.1-0.3,0.1
	c-0.1,0-0.2,0-0.3,0c-0.1,0-0.2,0-0.3-0.1c-0.1,0-0.2-0.1-0.2-0.2c-0.1-0.1-0.1-0.2-0.1-0.3c0-0.1,0-0.2,0-0.3c0-0.1,0-0.2,0.1-0.3
	c0-0.1,0.1-0.2,0.2-0.2l5.2-4.5c0.1-0.1,0.3-0.2,0.5-0.2c0.2,0,0.4,0.1,0.5,0.2l5.2,5.3c0.1,0.1,0.2,0.2,0.2,0.4c0,0.1,0,0.3,0,0.4
	c-0.1,0.1-0.2,0.3-0.3,0.3C44.1,31.8,43.9,31.9,43.8,31.9z"/>
<path class="st1" d="M42.3,29.6c-0.1,0-0.3,0-0.4-0.1c-0.1-0.1-0.2-0.2-0.3-0.3c-0.1-0.1-0.1-0.3,0-0.4c0-0.1,0.1-0.3,0.2-0.4l3-3
	c0.1-0.1,0.3-0.2,0.5-0.2c0.2,0,0.4,0.1,0.5,0.2l2.2,2.2c0.1,0.1,0.1,0.2,0.2,0.2c0,0.1,0.1,0.2,0.1,0.3s0,0.2-0.1,0.3
	c0,0.1-0.1,0.2-0.2,0.2c-0.1,0.1-0.2,0.1-0.2,0.2s-0.2,0.1-0.3,0.1s-0.2,0-0.3-0.1c-0.1,0-0.2-0.1-0.2-0.2l-1.7-1.7l-2.5,2.5
	c-0.1,0.1-0.2,0.1-0.2,0.2C42.5,29.6,42.4,29.6,42.3,29.6z M49.8,24.4H30.3c-0.2,0-0.4-0.1-0.5-0.2c-0.1-0.1-0.2-0.3-0.2-0.5
	s0.1-0.4,0.2-0.5s0.3-0.2,0.5-0.2h19.5c0.2,0,0.4,0.1,0.5,0.2c0.1,0.1,0.2,0.3,0.2,0.5s-0.1,0.4-0.2,0.5
	C50.2,24.3,50,24.4,49.8,24.4z"/>
</svg>
