<?xml version="1.0" encoding="utf-8"?>
<!-- Generator: Adobe Illustrator 26.0.3, SVG Export Plug-In . SVG Version: 6.00 Build 0)  -->
<svg version="1.1" id="Layer_1" xmlns="http://www.w3.org/2000/svg" xmlns:xlink="http://www.w3.org/1999/xlink" x="0px" y="0px"
	 viewBox="0 0 81 70" style="enable-background:new 0 0 81 70;" xml:space="preserve">
<style type="text/css">
	.st0{fill:none;stroke:#EFEFEF;}
	.st1{fill:#014E75;}
</style>
<line class="st0" x1="0.5" y1="0" x2="0.5" y2="70"/>
<line class="st0" x1="80.5" y1="0" x2="80.5" y2="70"/>
<path class="st1" d="M43.1,36.4h-6c-5.4,0-7.8-2.3-7.8-7.7v-6c0-5.4,2.3-7.8,7.8-7.8h6c5.4,0,7.8,2.3,7.8,7.8v6
	C50.9,34.1,48.5,36.4,43.1,36.4z M37.1,16.4c-4.6,0-6.3,1.6-6.3,6.2v6c0,4.6,1.6,6.2,6.3,6.2h6c4.6,0,6.2-1.6,6.2-6.2v-6
	c0-4.6-1.6-6.2-6.2-6.2H37.1z"/>
<path class="st1" d="M40.1,31.6c-3.2,0-5.8-2.6-5.8-5.8c0-3.2,2.6-5.7,5.8-5.7c0.6,0,1.3,0.1,1.9,0.3c0.4,0.1,0.6,0.5,0.5,0.9
	S42,22,41.6,21.9c-0.5-0.1-0.9-0.2-1.4-0.2c-2.3,0-4.2,1.9-4.2,4.2s1.9,4.2,4.2,4.2s4.2-1.9,4.2-4.2c0-0.9-0.2-1.7-0.7-2.4
	c-0.2-0.3-0.1-0.8,0.2-1c0.3-0.2,0.8-0.1,1,0.2c0.6,0.9,1,2,1,3.2C45.9,29.1,43.3,31.6,40.1,31.6z"/>
<path class="st1" d="M42.5,22c-0.2,0-0.4-0.1-0.6-0.3l-1.7-1.9c-0.3-0.3-0.2-0.8,0.1-1.1c0.3-0.3,0.8-0.2,1.1,0.1l1.7,1.9
	c0.3,0.3,0.2,0.8-0.1,1.1C42.8,22,42.7,22,42.5,22z"/>
<path class="st1" d="M40.5,23.5c-0.2,0-0.5-0.1-0.6-0.3c-0.2-0.3-0.2-0.8,0.2-1.1l1.9-1.4c0.3-0.2,0.8-0.2,1.1,0.2
	c0.2,0.3,0.2,0.8-0.2,1L41,23.3C40.9,23.4,40.7,23.5,40.5,23.5z"/>
<path class="st1" d="M15.8,58c-0.9,0-1.6-0.2-2.3-0.5c-0.6-0.4-1.1-0.9-1.4-1.5c-0.3-0.7-0.5-1.4-0.5-2.3s0.2-1.7,0.5-2.3
	c0.3-0.6,0.8-1.1,1.4-1.5c0.6-0.4,1.4-0.5,2.3-0.5c0.6,0,1.1,0.1,1.6,0.3c0.5,0.2,0.9,0.4,1.2,0.7l-0.5,1.2
	c-0.4-0.3-0.7-0.5-1.1-0.6c-0.3-0.1-0.7-0.2-1.2-0.2c-0.9,0-1.5,0.3-2,0.8c-0.4,0.5-0.7,1.2-0.7,2.2s0.2,1.7,0.7,2.2
	c0.5,0.5,1.1,0.8,2,0.8c0.4,0,0.8-0.1,1.2-0.2c0.4-0.1,0.7-0.4,1.1-0.7l0.5,1.2c-0.3,0.3-0.8,0.6-1.2,0.7C16.9,58,16.4,58,15.8,58z
	 M19.5,53.7c0-0.9,0.2-1.7,0.5-2.3c0.3-0.6,0.8-1.1,1.4-1.5c0.6-0.4,1.3-0.5,2.2-0.5c0.8,0,1.6,0.2,2.2,0.5c0.6,0.4,1.1,0.9,1.4,1.5
	c0.3,0.6,0.5,1.4,0.5,2.3c0,0.9-0.2,1.7-0.5,2.3c-0.3,0.6-0.8,1.2-1.4,1.5c-0.6,0.4-1.3,0.5-2.2,0.5c-0.8,0-1.6-0.2-2.2-0.5
	c-0.6-0.4-1.1-0.9-1.4-1.5C19.7,55.3,19.5,54.6,19.5,53.7z M21.1,53.7c0,1,0.2,1.7,0.6,2.2c0.4,0.5,1,0.8,1.8,0.8
	c0.8,0,1.4-0.3,1.8-0.8c0.4-0.5,0.6-1.3,0.6-2.2c0-1-0.2-1.7-0.6-2.2c-0.4-0.5-1-0.8-1.8-0.8c-0.8,0-1.4,0.3-1.8,0.8
	C21.3,52,21.1,52.7,21.1,53.7z M29.2,57.9v-8.5h1.2l4.9,6.3H35v-6.3h1.4v8.5h-1.2l-4.9-6.3h0.3v6.3H29.2z M41,57.9l-3.8-8.5h1.7
	l3,7.1h-0.5l3-7.1h1.6l-3.8,8.5H41z M46.9,57.9v-8.5h5.7v1.2h-4.2V53h3.9v1.2h-3.9v2.5h4.2v1.2H46.9z M54.1,57.9v-8.5h3.7
	c0.9,0,1.6,0.2,2.1,0.7c0.5,0.4,0.8,1.1,0.8,1.8c0,0.5-0.1,1-0.3,1.3c-0.2,0.4-0.5,0.7-1,0.9c-0.4,0.2-0.9,0.3-1.5,0.3l0.2-0.2h0.4
	c0.3,0,0.6,0.1,0.9,0.3s0.5,0.4,0.6,0.8l1.2,2.7h-1.7l-1.2-2.7c-0.1-0.3-0.3-0.5-0.5-0.6c-0.2-0.1-0.5-0.1-0.8-0.1h-1.3v3.4H54.1z
	 M55.6,53.4h1.9c0.5,0,1-0.1,1.2-0.3c0.3-0.2,0.4-0.6,0.4-1s-0.1-0.8-0.4-1c-0.3-0.2-0.7-0.3-1.2-0.3h-1.9V53.4z M64.3,57.9v-7.2
	h-2.8v-1.3h7.1v1.3h-2.8v7.2H64.3z"/>
</svg>
