<?xml version="1.0" encoding="utf-8"?>
<!-- Generator: Adobe Illustrator 26.0.3, SVG Export Plug-In . SVG Version: 6.00 Build 0)  -->
<svg version="1.1" xmlns="http://www.w3.org/2000/svg" xmlns:xlink="http://www.w3.org/1999/xlink" x="0px" y="0px"
	 viewBox="0 0 81 70" style="enable-background:new 0 0 81 70;" xml:space="preserve">
<style type="text/css">
	.st0{fill:none;stroke:#EFEFEF;}
	.st1{clip-path:url(#SVGID_00000048487496324832577150000005188290901352085942_);}
	.st2{fill:#014E75;}
</style>
<g id="Layer_3">
	<g id="Layer_1_00000157998567525406149120000017524453491287741369_">
		<line class="st0" x1="0.5" y1="0" x2="0.5" y2="70"/>
		<line class="st0" x1="80.5" y1="0" x2="80.5" y2="70"/>
	</g>
</g>
<g id="Layer_2_00000090278485367970574560000010979554445402245512_">
	<g>
		<g>
			<defs>
				<rect id="SVGID_1_" x="28.1" y="17.9" width="24" height="24"/>
			</defs>
			<clipPath id="SVGID_00000040566362616047980940000012749486007527123373_">
				<use xlink:href="#SVGID_1_"  style="overflow:visible;"/>
			</clipPath>
			<g style="clip-path:url(#SVGID_00000040566362616047980940000012749486007527123373_);">
				<path class="st2" d="M48.6,21.4c-2.3-2.3-5.3-3.5-8.5-3.5s-6.2,1.2-8.5,3.5s-3.5,5.3-3.5,8.5s1.2,6.2,3.5,8.5
					c2.3,2.3,5.3,3.5,8.5,3.5s6.2-1.2,8.5-3.5s3.5-5.3,3.5-8.5S50.9,23.6,48.6,21.4z M40.1,40.4c-5.8,0-10.6-4.7-10.6-10.6
					s4.7-10.6,10.6-10.6S50.7,24,50.7,29.9S46,40.4,40.1,40.4z"/>
				<path class="st2" d="M37.5,26.7c-1.2-1.2-3.1-1.2-4.2,0c-0.3,0.3-0.3,0.7,0,1s0.7,0.3,1,0c0.6-0.6,1.6-0.6,2.2,0
					c0.1,0.1,0.3,0.2,0.5,0.2s0.4-0.1,0.5-0.2C37.8,27.4,37.8,27,37.5,26.7z M47,26.7c-1.2-1.2-3.1-1.2-4.2,0c-0.3,0.3-0.3,0.7,0,1
					s0.7,0.3,1,0c0.6-0.6,1.6-0.6,2.2,0c0.1,0.1,0.3,0.2,0.5,0.2s0.4-0.1,0.5-0.2C47.3,27.4,47.3,27,47,26.7z M46.5,30.4H33.8
					c-0.4,0-0.7,0.3-0.7,0.7c0,3.9,3.2,7,7,7c3.9,0,7-3.2,7-7C47.2,30.7,46.9,30.4,46.5,30.4z M40.1,36.7c-2.9,0-5.2-2.1-5.6-4.9
					h11.1C45.4,34.6,43,36.7,40.1,36.7z"/>
			</g>
		</g>
	</g>
	<path class="st2" d="M23.6,57.9v-8.5h5.7v1.2h-4.2v2.3H29v1.2h-3.9v2.5h4.2v1.2L23.6,57.9L23.6,57.9z M30.7,57.9v-8.5h1.4l3.1,7
		h-0.4l3.1-7h1.3v8.5h-1.4v-6.3h0.4l-2.8,6.3h-0.9l-2.8-6.3h0.4v6.3H30.7z M40.9,53.6c0-0.9,0.2-1.7,0.5-2.3s0.8-1.1,1.4-1.5
		c0.6-0.4,1.3-0.5,2.2-0.5c0.8,0,1.6,0.2,2.2,0.5c0.6,0.4,1.1,0.9,1.4,1.5c0.3,0.6,0.5,1.4,0.5,2.3c0,0.9-0.2,1.7-0.5,2.3
		s-0.8,1.2-1.4,1.5c-0.6,0.4-1.3,0.5-2.2,0.5c-0.8,0-1.6-0.2-2.2-0.5c-0.6-0.4-1.1-0.9-1.4-1.5C41,55.3,40.9,54.5,40.9,53.6z
		 M42.5,53.6c0,1,0.2,1.7,0.6,2.2c0.4,0.5,1,0.8,1.8,0.8s1.4-0.3,1.8-0.8c0.4-0.5,0.6-1.3,0.6-2.2c0-1-0.2-1.7-0.6-2.2
		c-0.4-0.5-1-0.8-1.8-0.8s-1.4,0.3-1.8,0.8S42.5,52.7,42.5,53.6z M50.3,60.1c-0.1,0-0.3,0-0.5,0s-0.4,0-0.6-0.1v-1.2
		c0.2,0,0.3,0.1,0.4,0.1c0.1,0,0.3,0,0.4,0c0.4,0,0.6-0.1,0.8-0.3s0.3-0.6,0.3-1v-8.1h1.5v8.1c0,0.6-0.1,1.1-0.2,1.4
		c-0.2,0.4-0.4,0.7-0.8,0.9C51.3,60,50.9,60.1,50.3,60.1z M54.5,57.9v-8.5H56v8.5H54.5z"/>
</g>
</svg>
