<svg width="25" height="25" viewBox="0 0 25 25" fill="none" xmlns="http://www.w3.org/2000/svg">
<path d="M12.4993 0.464966C5.85352 0.464966 0.416016 5.89038 0.416016 12.5725C0.416016 18.6141 4.83851 23.6287 10.6143 24.535V16.0766H7.54518V12.5725H10.6143V9.90205C10.6143 6.86913 12.4148 5.20163 15.1818 5.20163C16.4989 5.20163 17.8764 5.43122 17.8764 5.43122V8.4158H16.3539C14.8556 8.4158 14.3843 9.34622 14.3843 10.3008V12.5725H17.7435L17.1998 16.0766H14.3843V24.535C17.2317 24.0853 19.8245 22.6325 21.6947 20.4388C23.5648 18.2451 24.5891 15.4551 24.5827 12.5725C24.5827 5.89038 19.1452 0.464966 12.4993 0.464966Z" fill="#BFDAE9"/>
</svg>
