<?xml version="1.0" encoding="utf-8"?>
<!-- Generator: Adobe Illustrator 26.0.3, SVG Export Plug-In . SVG Version: 6.00 Build 0)  -->
<svg version="1.1" xmlns="http://www.w3.org/2000/svg" xmlns:xlink="http://www.w3.org/1999/xlink" x="0px" y="0px"
	 viewBox="0 0 64 64" style="enable-background:new 0 0 64 64;" xml:space="preserve">
<style type="text/css">
	.st0{fill:#014E75;}
	.st1{display:none;fill:none;stroke:#F2F2F2;}
	.st2{fill:none;stroke:#EFEFEF;}
</style>
<g id="Layer_1">
	<path class="st0" d="M41,27.8H23c-0.4,0-0.8-0.3-0.8-0.8s0.3-0.8,0.8-0.8h18c0.4,0,0.8,0.3,0.8,0.8S41.4,27.8,41,27.8z"/>
	<path class="st0" d="M41,32.8H23c-0.4,0-0.8-0.3-0.8-0.8s0.3-0.8,0.8-0.8h18c0.4,0,0.8,0.3,0.8,0.8S41.4,32.8,41,32.8z"/>
	<path class="st0" d="M41,37.8H23c-0.4,0-0.8-0.3-0.8-0.8s0.3-0.8,0.8-0.8h18c0.4,0,0.8,0.3,0.8,0.8S41.4,37.8,41,37.8z"/>
	<rect x="0.5" y="0.5" class="st1" width="63" height="63"/>
</g>
<g id="Layer_2">
	<line class="st2" x1="0.5" y1="0" x2="0.5" y2="64"/>
	<line class="st2" x1="63.5" y1="0" x2="63.5" y2="64"/>
</g>
</svg>
