<?xml version="1.0" encoding="utf-8"?>
<!-- Generator: Adobe Illustrator 26.0.3, SVG Export Plug-In . SVG Version: 6.00 Build 0)  -->
<svg version="1.1" id="Layer_1" xmlns="http://www.w3.org/2000/svg" xmlns:xlink="http://www.w3.org/1999/xlink" x="0px" y="0px"
	 viewBox="0 0 45 45" style="enable-background:new 0 0 45 45;" xml:space="preserve">
<style type="text/css">
	.st0{fill:none;stroke:#F2F2F2;}
	.st1{fill:#014E75;}
</style>
<rect class="st0" width="45" height="45"/>
<path class="st1" d="M22.1,32.3c-5.6,0-10.2-4.6-10.2-10.2s4.6-10.3,10.2-10.3S32.3,16.4,32.3,22S27.8,32.3,22.1,32.3z M22.1,13.3
	c-4.8,0-8.8,3.9-8.8,8.8s3.9,8.7,8.8,8.7s8.8-3.9,8.8-8.7S26.9,13.3,22.1,13.3z"/>
<path class="st1" d="M32.6,33.3c-0.2,0-0.4-0.1-0.5-0.2l-2-2c-0.3-0.3-0.3-0.8,0-1.1s0.8-0.3,1.1,0l2,2c0.3,0.3,0.3,0.8,0,1.1
	C33,33.2,32.8,33.3,32.6,33.3z"/>
</svg>
