<?xml version="1.0" encoding="utf-8"?>
<!-- Generator: Adobe Illustrator 26.0.3, SVG Export Plug-In . SVG Version: 6.00 Build 0)  -->
<svg version="1.1" xmlns="http://www.w3.org/2000/svg" xmlns:xlink="http://www.w3.org/1999/xlink" x="0px" y="0px"
	 viewBox="0 0 64 64" style="enable-background:new 0 0 64 64;" xml:space="preserve">
<style type="text/css">
	.st0{fill:#014E75;}
	.st1{fill:none;stroke:#EFEFEF;}
</style>
<g id="Layer_1">
	<path class="st0" d="M31.5,41.8c-5.6,0-10.2-4.6-10.2-10.2s4.6-10.2,10.2-10.2s10.2,4.6,10.2,10.2S37.2,41.8,31.5,41.8z M31.5,22.8
		c-4.8,0-8.8,3.9-8.8,8.8s3.9,8.8,8.8,8.8s8.8-3.9,8.8-8.8S36.3,22.8,31.5,22.8z"/>
	<path class="st0" d="M42,42.8c-0.2,0-0.4-0.1-0.5-0.2l-2-2c-0.3-0.3-0.3-0.8,0-1.1c0.3-0.3,0.8-0.3,1.1,0l2,2
		c0.3,0.3,0.3,0.8,0,1.1C42.4,42.7,42.2,42.8,42,42.8z"/>
</g>
<g id="Layer_2">
	<line class="st1" x1="0.5" y1="0" x2="0.5" y2="64"/>
	<line class="st1" x1="63.5" y1="0" x2="63.5" y2="64"/>
</g>
</svg>
