<?xml version="1.0" encoding="utf-8"?>
<!-- Generator: Adobe Illustrator 26.0.3, SVG Export Plug-In . SVG Version: 6.00 Build 0)  -->
<svg version="1.1" id="Layer_2" xmlns="http://www.w3.org/2000/svg" xmlns:xlink="http://www.w3.org/1999/xlink" x="0px" y="0px"
	 viewBox="0 0 24 24" style="enable-background:new 0 0 24 24;" xml:space="preserve">
<style type="text/css">
	.st0{clip-path:url(#SVGID_00000095317104125994782770000018077098791913085082_);}
	.st1{fill:#292D32;}
</style>
<g>
	<defs>
		<rect id="SVGID_1_" x="0.1" y="0.1" width="24" height="24"/>
	</defs>
	<clipPath id="SVGID_00000149365322893061128890000018276572524903412659_">
		<use xlink:href="#SVGID_1_"  style="overflow:visible;"/>
	</clipPath>
	<g style="clip-path:url(#SVGID_00000149365322893061128890000018276572524903412659_);">
		<path class="st1" d="M20.5,3.6c-2.3-2.3-5.3-3.5-8.5-3.5S5.8,1.3,3.6,3.6s-3.5,5.3-3.5,8.5s1.2,6.2,3.5,8.5s5.3,3.5,8.5,3.5
			s6.2-1.2,8.5-3.5c2.3-2.3,3.5-5.3,3.5-8.5S22.8,5.8,20.5,3.6z M12.1,22.6c-5.8,0-10.6-4.7-10.6-10.6S6.2,1.5,12.1,1.5
			s10.6,4.7,10.6,10.6S17.9,22.6,12.1,22.6z"/>
		<path class="st1" d="M9.5,8.9c-1.2-1.2-3.1-1.2-4.2,0c-0.3,0.3-0.3,0.7,0,1c0.3,0.3,0.7,0.3,1,0c0.6-0.6,1.6-0.6,2.2,0
			C8.6,10,8.8,10.1,9,10.1S9.3,10,9.5,9.9C9.7,9.6,9.7,9.2,9.5,8.9z M18.9,8.9c-1.2-1.2-3.1-1.2-4.2,0c-0.3,0.3-0.3,0.7,0,1
			c0.3,0.3,0.7,0.3,1,0c0.6-0.6,1.6-0.6,2.2,0c0.1,0.1,0.3,0.2,0.5,0.2c0.2,0,0.4-0.1,0.5-0.2C19.2,9.6,19.2,9.2,18.9,8.9z
			 M18.4,12.6H5.7c-0.4,0-0.7,0.3-0.7,0.7c0,3.9,3.2,7,7,7c3.9,0,7-3.2,7-7C19.1,12.9,18.8,12.6,18.4,12.6z M12.1,18.9
			c-2.9,0-5.2-2.1-5.6-4.9h11.1C17.3,16.8,14.9,18.9,12.1,18.9z"/>
	</g>
</g>
</svg>
