<?xml version="1.0" encoding="utf-8"?>
<!-- Generator: Adobe Illustrator 26.0.3, SVG Export Plug-In . SVG Version: 6.00 Build 0)  -->
<svg version="1.1" id="Layer_1" xmlns="http://www.w3.org/2000/svg" xmlns:xlink="http://www.w3.org/1999/xlink" x="0px" y="0px"
	 viewBox="0 0 21 24" style="enable-background:new 0 0 21 24;" xml:space="preserve">
<style type="text/css">
	.st0{display:none;}
	.st1{display:inline;fill:#292D32;}
	.st2{display:inline;fill:#FFFFFF;}
	.st3{fill:#292D32;}
</style>
<g id="color_00000170982022160797430440000014222258867235869109_" class="st0">
	<path class="st1" d="M15.5,14c-0.1,1.1-0.6,2.1-1.4,2.9c-0.9,0.9-2.2,1.4-3.5,1.4c-2.7,0-4.9-2.2-4.9-4.9c0-1.3,0.5-2.6,1.4-3.5
		C7.9,9.1,8.9,8.6,10,8.5l0.5-0.1l0.8-5.6h-0.8C4.7,2.8,0,7.6,0,13.4C0,19.3,4.7,24,10.6,24s10.6-4.7,10.6-10.6v-0.8l-5.7,0.8
		C15.5,13.4,15.5,14,15.5,14z M9.8,4.3L9.3,7.2c-1,0.2-1.9,0.6-2.7,1.3l-2-2C6.1,5.2,7.9,4.4,9.8,4.3z M3.6,7.4l2,2
		c-0.8,0.9-1.2,2.1-1.4,3.3H1.4C1.6,10.8,2.3,8.9,3.6,7.4z M1.4,14.1h2.8c0.1,1.2,0.6,2.3,1.4,3.3l-2,2C2.3,17.9,1.6,16.1,1.4,14.1z
		 M9.9,22.6c-2-0.1-3.8-0.9-5.3-2.2l2-2c0.9,0.8,2.1,1.2,3.3,1.4V22.6z M11.3,22.6v-2.8c1.2-0.1,2.3-0.6,3.3-1.4l2,2
		C15.1,21.7,13.2,22.4,11.3,22.6z M16.8,14.7l2.9-0.4c-0.2,1.9-0.9,3.7-2.2,5.1l-2-2C16.2,16.6,16.6,15.6,16.8,14.7z"/>
	<path class="st1" d="M23.4,0.6c-0.8-0.8-2.2-0.8-3,0l-1.3,1.3l-1-1l-3,3l1,1l-6.7,6.7v3h3l6.7-6.7l1,1l3-3l-1-1l1.3-1.3
		C24.2,2.8,24.2,1.4,23.4,0.6z M11.8,13.2h-1v-1l6.3-6.3l1,1L11.8,13.2z M20.1,6.9l-3-3l1-1l3,3L20.1,6.9z M22.4,2.6l-1.3,1.3l-1-1
		l1.3-1.3c0.3-0.3,0.7-0.3,1,0C22.7,1.9,22.7,2.3,22.4,2.6z"/>
</g>
<g id="color" class="st0">
	<path class="st1" d="M31.4,16.4c-0.9,0-1.6-0.2-2.3-0.5c-0.6-0.4-1.1-0.9-1.4-1.5c-0.3-0.7-0.5-1.4-0.5-2.3c0-0.9,0.2-1.7,0.5-2.3
		s0.8-1.1,1.4-1.5c0.6-0.4,1.4-0.5,2.3-0.5c0.6,0,1.1,0.1,1.6,0.3c0.5,0.2,0.9,0.4,1.2,0.7L33.7,10c-0.4-0.3-0.7-0.5-1.1-0.6
		C32.3,9.1,31.9,9,31.5,9c-0.9,0-1.5,0.3-2,0.8c-0.4,0.5-0.7,1.2-0.7,2.2s0.2,1.7,0.7,2.2s1.1,0.8,2,0.8c0.4,0,0.8-0.1,1.2-0.2
		c0.4-0.1,0.7-0.4,1.1-0.7l0.5,1.2c-0.3,0.3-0.8,0.6-1.2,0.7C32.6,16.3,32,16.4,31.4,16.4z M35.2,12c0-0.9,0.2-1.7,0.5-2.3
		C36,9,36.4,8.5,37.1,8.2c0.6-0.4,1.3-0.5,2.2-0.5c0.8,0,1.6,0.2,2.2,0.5c0.5,0.3,1,0.8,1.3,1.5c0.3,0.6,0.5,1.4,0.5,2.3
		c0,0.9-0.2,1.7-0.5,2.3s-0.8,1.2-1.4,1.5c-0.6,0.4-1.3,0.5-2.2,0.5c-0.8,0-1.6-0.2-2.2-0.5c-0.6-0.4-1.1-0.9-1.4-1.5
		C35.3,13.6,35.2,12.9,35.2,12z M36.8,12c0,1,0.2,1.7,0.6,2.2c0.4,0.5,1,0.8,1.8,0.8s1.4-0.3,1.8-0.8c0.4-0.5,0.6-1.3,0.6-2.2
		c0-1-0.2-1.7-0.6-2.2C40.6,9.2,40,9,39.2,9s-1.4,0.3-1.8,0.8S36.8,11,36.8,12z M44.9,16.2V7.8h1.5V15h4v1.3L44.9,16.2L44.9,16.2z
		 M50.9,12c0-0.9,0.2-1.7,0.5-2.3s0.8-1.1,1.4-1.5c0.6-0.4,1.3-0.5,2.2-0.5c0.8,0,1.6,0.2,2.2,0.5c0.6,0.4,1.1,0.9,1.4,1.5
		c0.3,0.6,0.5,1.4,0.5,2.3c0,0.9-0.2,1.7-0.5,2.3s-0.8,1.2-1.4,1.5c-0.6,0.4-1.3,0.5-2.2,0.5c-0.8,0-1.6-0.2-2.2-0.5
		c-0.6-0.4-1.1-0.9-1.4-1.5C51,13.6,50.9,12.9,50.9,12z M52.5,12c0,1,0.2,1.7,0.6,2.2c0.4,0.5,1,0.8,1.8,0.8s1.4-0.3,1.8-0.8
		c0.4-0.5,0.6-1.3,0.6-2.2c0-1-0.2-1.7-0.6-2.2c-0.4-0.5-1-0.8-1.8-0.8s-1.4,0.3-1.8,0.8S52.5,11,52.5,12z M60.6,16.2V7.8h3.7
		c0.9,0,1.6,0.2,2.1,0.7c0.5,0.4,0.8,1.1,0.8,1.8c0,0.5-0.1,1-0.3,1.3c-0.2,0.4-0.5,0.7-1,0.9c-0.4,0.2-0.9,0.3-1.5,0.3l0.2-0.2H65
		c0.3,0,0.6,0.1,0.9,0.3s0.5,0.4,0.6,0.8l1.2,2.7H66l-1.2-2.7c-0.1-0.3-0.3-0.5-0.5-0.6S63.8,13,63.5,13h-1.3v3.4h-1.6
		C60.6,16.4,60.6,16.2,60.6,16.2z M62.1,11.7H64c0.5,0,1-0.1,1.2-0.3c0.3-0.2,0.4-0.6,0.4-1s-0.1-0.8-0.4-1C65,9.1,64.6,9,64,9h-1.9
		V11.7z"/>
</g>
<g id="compress_x5F_h" class="st0">
	<path class="st2" d="M32.8,16.4c-0.9,0-1.6-0.2-2.3-0.5c-0.6-0.4-1.1-0.9-1.4-1.5c-0.3-0.7-0.5-1.4-0.5-2.3c0-0.9,0.2-1.7,0.5-2.3
		s0.8-1.1,1.4-1.5c0.6-0.4,1.4-0.5,2.3-0.5c0.6,0,1.1,0.1,1.6,0.3c0.5,0.2,0.9,0.4,1.2,0.7L35.1,10c-0.4-0.3-0.7-0.5-1.1-0.6
		C33.7,9.1,33.3,9,32.9,9c-0.9,0-1.5,0.3-2,0.8c-0.4,0.5-0.7,1.2-0.7,2.2s0.2,1.7,0.7,2.2s1.1,0.8,2,0.8c0.4,0,0.8-0.1,1.2-0.2
		c0.4-0.1,0.7-0.4,1.1-0.7l0.5,1.2c-0.3,0.3-0.8,0.6-1.2,0.7C33.9,16.3,33.4,16.4,32.8,16.4z M36.5,12c0-0.9,0.2-1.7,0.5-2.3
		s0.8-1.1,1.4-1.5c0.6-0.4,1.3-0.5,2.2-0.5c0.8,0,1.6,0.2,2.2,0.5c0.6,0.4,1.1,0.9,1.4,1.5c0.3,0.6,0.5,1.4,0.5,2.3
		c0,0.9-0.2,1.7-0.5,2.3s-0.8,1.2-1.4,1.5c-0.6,0.4-1.3,0.5-2.2,0.5c-0.8,0-1.6-0.2-2.2-0.5c-0.6-0.4-1.1-0.9-1.4-1.5
		C36.7,13.6,36.5,12.9,36.5,12z M38.2,12c0,1,0.2,1.7,0.6,2.2c0.4,0.5,1,0.8,1.8,0.8s1.4-0.3,1.8-0.8c0.4-0.5,0.6-1.3,0.6-2.2
		c0-1-0.2-1.7-0.6-2.2C42,9.2,41.4,9,40.6,9c-0.8,0-1.4,0.3-1.8,0.8S38.2,11,38.2,12z M46.3,16.2V7.8h1.4l3.1,7h-0.4l3.1-7h1.3v8.5
		h-1.4V10h0.4L51,16.2h-0.9L47.2,10h0.4v6.3L46.3,16.2L46.3,16.2z M56.7,16.2V7.8h3.8c0.9,0,1.6,0.2,2.1,0.7
		c0.5,0.4,0.7,1.1,0.7,1.8c0,0.8-0.2,1.4-0.7,1.8c-0.5,0.5-1.2,0.7-2.1,0.7h-2.2v3.4H56.7z M58.2,11.6h2c0.5,0,0.9-0.1,1.2-0.3
		s0.4-0.6,0.4-1s-0.1-0.7-0.4-1C61.2,9.1,60.8,9,60.3,9h-2L58.2,11.6L58.2,11.6z M64.7,16.2V7.8h3.7c0.9,0,1.6,0.2,2.1,0.7
		c0.5,0.4,0.8,1.1,0.8,1.8c0,0.5-0.1,1-0.3,1.3c-0.2,0.4-0.5,0.7-1,0.9c-0.4,0.2-0.9,0.3-1.5,0.3l0.2-0.2h0.4c0.3,0,0.6,0.1,0.9,0.3
		s0.5,0.4,0.6,0.8l1.2,2.7h-1.7l-1.2-2.7c-0.1-0.3-0.3-0.5-0.5-0.6S67.9,13,67.6,13h-1.3v3.4h-1.6V16.2z M66.2,11.7h1.9
		c0.5,0,1-0.1,1.2-0.3c0.3-0.2,0.4-0.6,0.4-1s-0.1-0.8-0.4-1C69.1,9.1,68.7,9,68.1,9h-1.9V11.7z M73.1,16.2V7.8h5.7V9h-4.2v2.3h3.9
		v1.2h-3.9V15h4.2v1.2H73.1z M83.1,16.4c-0.7,0-1.3-0.1-1.9-0.3c-0.6-0.2-1.1-0.4-1.5-0.7l0.5-1.2c0.3,0.2,0.6,0.4,0.9,0.5
		s0.6,0.2,0.9,0.3s0.7,0.1,1.1,0.1c0.6,0,1.1-0.1,1.4-0.3s0.4-0.5,0.4-0.8s-0.1-0.5-0.3-0.7c-0.2-0.2-0.5-0.3-1-0.4l-1.4-0.3
		c-0.8-0.2-1.4-0.4-1.7-0.8c-0.4-0.4-0.6-0.9-0.6-1.5c0-0.5,0.1-1,0.4-1.4C80.6,8.5,81,8.2,81.5,8s1.1-0.3,1.8-0.3
		c0.6,0,1.2,0.1,1.7,0.3c0.5,0.2,0.9,0.4,1.3,0.7l-0.5,1.2c-0.3-0.3-0.7-0.5-1.1-0.6s-0.9-0.2-1.4-0.2c-0.6,0-1,0.1-1.3,0.3
		s-0.5,0.5-0.5,0.9c0,0.3,0.1,0.5,0.3,0.7c0.2,0.2,0.5,0.3,1,0.4l1.3,0.3c0.8,0.2,1.4,0.4,1.8,0.8c0.4,0.4,0.6,0.8,0.6,1.5
		c0,0.5-0.1,0.9-0.4,1.3c-0.3,0.4-0.7,0.7-1.2,0.9C84.4,16.2,83.8,16.4,83.1,16.4z M90.8,16.4c-0.7,0-1.3-0.1-1.9-0.3
		c-0.6-0.2-1.1-0.4-1.5-0.7l0.5-1.2c0.3,0.2,0.6,0.4,0.9,0.5s0.6,0.2,0.9,0.3s0.7,0.1,1.1,0.1c0.6,0,1.1-0.1,1.4-0.3
		s0.4-0.5,0.4-0.8s-0.1-0.5-0.3-0.7c-0.2-0.2-0.5-0.3-1-0.4l-1.4-0.3c-0.8-0.2-1.4-0.4-1.7-0.8c-0.4-0.4-0.6-0.9-0.6-1.5
		c0-0.5,0.1-1,0.4-1.4s0.7-0.7,1.2-0.9s1.1-0.3,1.8-0.3c0.6,0,1.2,0.1,1.7,0.3c0.5,0.2,0.9,0.4,1.3,0.7l-0.5,1.2
		c-0.3-0.3-0.7-0.5-1.1-0.6C91.9,9,91.5,8.9,91,8.9c-0.6,0-1,0.1-1.3,0.3s-0.5,0.5-0.5,0.9c0,0.3,0.1,0.5,0.3,0.7
		c0.2,0.2,0.5,0.3,1,0.4l1.3,0.3c0.8,0.2,1.4,0.4,1.8,0.8c0.4,0.4,0.6,0.8,0.6,1.5c0,0.5-0.1,0.9-0.4,1.3c-0.3,0.4-0.7,0.7-1.2,0.9
		C92.1,16.2,91.5,16.4,90.8,16.4z"/>
</g>
<g id="compress_x5F_h_00000052085575197897033170000012833991412739081863_" class="st0">
	<path class="st2" d="M0.8,6C0.6,6,0.4,5.9,0.2,5.8C0.1,5.6,0,5.4,0,5.2v-3C0,2,0.1,1.8,0.2,1.7s0.3-0.2,0.5-0.2H3
		c0.2,0,0.4,0.1,0.5,0.2S3.7,2,3.7,2.2s0,0.4-0.2,0.6C3.4,2.9,3.2,3,3,3H1.5v2.2c0,0.2-0.1,0.4-0.2,0.5C1.1,5.9,0.9,6,0.8,6z
		 M3,22.5H0.8c-0.2,0-0.4-0.1-0.5-0.2C0.1,22.1,0,21.9,0,21.8v-3c0-0.2,0.1-0.4,0.2-0.5C0.4,18.1,0.6,18,0.8,18s0.4,0.1,0.5,0.2
		c0.1,0.1,0.2,0.3,0.2,0.5V21H3c0.2,0,0.4,0.1,0.5,0.2s0.2,0.3,0.2,0.5s-0.1,0.4-0.2,0.5C3.4,22.4,3.2,22.5,3,22.5z M20.2,6
		c-0.2,0-0.4-0.1-0.5-0.2s-0.2-0.3-0.2-0.5V3H18c-0.2,0-0.4-0.1-0.5-0.2c-0.1-0.1-0.2-0.3-0.2-0.5s0.1-0.4,0.2-0.5s0.3-0.2,0.5-0.2
		h2.2c0.2,0,0.4,0.1,0.5,0.2C20.9,1.9,21,2.1,21,2.2v3c0,0.2-0.1,0.4-0.2,0.5C20.6,5.9,20.4,6,20.2,6z M20.2,22.5H18
		c-0.2,0-0.4-0.1-0.5-0.2s-0.2-0.3-0.2-0.5s0.1-0.4,0.2-0.5s0.3-0.2,0.5-0.2h1.5v-2.2c0-0.2,0.1-0.4,0.2-0.5s0.3-0.2,0.5-0.2
		s0.4,0.1,0.5,0.2s0.2,0.3,0.2,0.5v3c0,0.2-0.1,0.4-0.2,0.5C20.6,22.4,20.4,22.5,20.2,22.5z M18,18H3c-0.2,0-0.4-0.1-0.5-0.2
		s-0.2-0.3-0.2-0.5V12c0-0.2,0.1-0.4,0.2-0.5c0.1-0.1,0.3-0.2,0.5-0.2s0.4,0.1,0.5,0.2c0.1,0.1,0.2,0.3,0.2,0.5v4.5h13.5V12
		c0-0.2,0.1-0.4,0.2-0.5s0.3-0.2,0.5-0.2s0.4,0.1,0.5,0.2c0.1,0.1,0.2,0.3,0.2,0.5v5.2c0,0.2-0.1,0.4-0.2,0.5
		C18.4,17.9,18.2,18,18,18z M18,9.8c-0.2,0-0.4-0.1-0.5-0.2c-0.1-0.1-0.2-0.3-0.2-0.5V7.5H3.8V9c0,0.2-0.1,0.4-0.2,0.5
		C3.4,9.7,3.2,9.8,3,9.8S2.6,9.7,2.5,9.5C2.3,9.4,2.2,9.2,2.2,9V6.8c0-0.2,0.1-0.4,0.2-0.5C2.6,6.1,2.8,6,3,6h15
		c0.2,0,0.4,0.1,0.5,0.2s0.2,0.3,0.2,0.5V9c0,0.2-0.1,0.4-0.2,0.5C18.4,9.7,18.2,9.8,18,9.8z"/>
	<path class="st2" d="M14.3,18c-0.1,0-0.2,0-0.3-0.1c-0.1,0-0.2-0.1-0.2-0.2L9,13l-4.7,4c-0.1,0.1-0.2,0.1-0.3,0.1
		c-0.1,0-0.2,0-0.3,0s-0.2,0-0.3-0.1c-0.1,0-0.2-0.1-0.2-0.2c-0.1-0.1-0.1-0.2-0.1-0.3c0-0.1,0-0.2,0-0.3c0-0.1,0-0.2,0.1-0.3
		c0-0.1,0.1-0.2,0.2-0.2l5.2-4.5C8.7,11.1,8.9,11,9.1,11s0.4,0.1,0.5,0.2l5.2,5.3c0.1,0.1,0.2,0.2,0.2,0.4c0,0.1,0,0.3,0,0.4
		c-0.1,0.1-0.2,0.3-0.3,0.3C14.5,18,14.4,18,14.3,18z"/>
	<path class="st2" d="M12.8,15.8c-0.1,0-0.3,0-0.4-0.1c-0.1-0.1-0.2-0.2-0.3-0.3C12,15.1,12,15,12,14.9s0.1-0.3,0.2-0.4l3-3
		c0.1-0.1,0.3-0.2,0.5-0.2s0.4,0.1,0.5,0.2l2.2,2.2c0.1,0.1,0.1,0.2,0.2,0.2c0,0.1,0.1,0.2,0.1,0.3s0,0.2-0.1,0.3
		c0,0.1-0.1,0.2-0.2,0.2c-0.1,0.1-0.2,0.1-0.2,0.2c0,0.1-0.1,0.1-0.2,0.1s-0.2,0-0.3-0.1c-0.1,0-0.2-0.1-0.2-0.2L15.8,13l-2.5,2.5
		c-0.1,0.1-0.2,0.1-0.2,0.2C12.9,15.7,12.8,15.8,12.8,15.8z M20.2,10.5H0.8c-0.2,0-0.4-0.1-0.5-0.2C0.1,10.1,0,9.9,0,9.8
		s0.1-0.4,0.2-0.5C0.4,9.1,0.6,9,0.8,9h19.5c0.2,0,0.4,0.1,0.5,0.2C20.9,9.4,21,9.6,21,9.8s-0.1,0.4-0.2,0.5
		C20.6,10.4,20.4,10.5,20.2,10.5z"/>
</g>
<g id="Layer_5">
	<path class="st3" d="M0.7,6C0.5,6,0.3,5.9,0.1,5.8C0,5.7-0.1,5.5-0.1,5.3v-3c0-0.2,0.1-0.4,0.2-0.5s0.3-0.2,0.5-0.2h2.2
		c0.2,0,0.4,0.1,0.5,0.2s0.2,0.3,0.2,0.5s0.1,0.4,0,0.5C3.3,2.9,3.1,3,2.9,3H1.4v2.3c0,0.2-0.1,0.4-0.2,0.5C1.1,5.9,0.9,6,0.7,6z
		 M2.9,22.5H0.7c-0.2,0-0.4-0.1-0.5-0.2C0,22.2-0.1,22-0.1,21.8v-3c0-0.2,0.1-0.4,0.2-0.5C0.3,18.1,0.5,18,0.7,18s0.4,0.1,0.5,0.2
		s0.2,0.3,0.2,0.5V21h1.5c0.2,0,0.4,0.1,0.5,0.2s0.2,0.3,0.2,0.5s-0.1,0.4-0.2,0.5C3.3,22.4,3.1,22.5,2.9,22.5z M20.2,6
		c-0.2,0-0.4-0.1-0.5-0.2s-0.2-0.3-0.2-0.5V3H18c-0.2,0-0.4-0.1-0.5-0.2c-0.1-0.1-0.2-0.3-0.2-0.5s0.1-0.4,0.2-0.5s0.3-0.2,0.5-0.2
		h2.2c0.2,0,0.4,0.1,0.5,0.2s0.2,0.3,0.2,0.5v3c0,0.2-0.1,0.4-0.2,0.5S20.4,6,20.2,6z M20.2,22.5H18c-0.2,0-0.4-0.1-0.5-0.2
		s-0.2-0.3-0.2-0.5s0.1-0.4,0.2-0.5s0.3-0.2,0.5-0.2h1.5v-2.2c0-0.2,0.1-0.4,0.2-0.5s0.3-0.2,0.5-0.2s0.4,0.1,0.5,0.2
		s0.2,0.3,0.2,0.5v3c0,0.2-0.1,0.4-0.2,0.5C20.6,22.4,20.4,22.5,20.2,22.5z M17.9,18h-15c-0.2,0-0.4-0.1-0.5-0.2s-0.2-0.3-0.2-0.5
		V12c0-0.2,0.1-0.4,0.2-0.5c0.1-0.1,0.3-0.2,0.5-0.2s0.4,0.1,0.5,0.2c0.1,0.1,0.2,0.3,0.2,0.5v4.5h13.5V12c0-0.2,0.1-0.4,0.2-0.5
		s0.3-0.2,0.5-0.2s0.4,0.1,0.5,0.2c0.1,0.1,0.2,0.3,0.2,0.5v5.2c0,0.2-0.1,0.4-0.2,0.5C18.3,17.9,18.1,18,17.9,18z M17.9,9.8
		c-0.2,0-0.4-0.1-0.5-0.2c-0.1-0.1-0.2-0.3-0.2-0.5V7.5H3.7V9c0,0.2-0.1,0.4-0.2,0.5C3.3,9.7,3.1,9.8,2.9,9.8S2.5,9.7,2.4,9.5
		C2.3,9.4,2.2,9.2,2.2,9V6.8c0-0.2,0.1-0.4,0.2-0.5C2.5,6.1,2.7,6,2.9,6h15c0.2,0,0.4,0.1,0.5,0.2s0.2,0.3,0.2,0.5V9
		c0,0.2-0.1,0.4-0.2,0.5C18.3,9.7,18.1,9.8,17.9,9.8z"/>
	<path class="st3" d="M14.2,18c-0.1,0-0.2,0-0.3-0.1c-0.1,0-0.2-0.1-0.2-0.2L8.9,13l-4.7,4c-0.1,0.1-0.2,0.1-0.3,0.1s-0.2,0-0.3,0
		s-0.2,0-0.3-0.1c-0.1,0-0.2-0.1-0.2-0.2c-0.1,0.1-0.1,0-0.1,0c0-0.1,0-0.2,0-0.3c0-0.1,0-0.2,0.1-0.3c0-0.1,0.1-0.2,0.2-0.2
		l5.3-4.5c0.1-0.1,0.3-0.2,0.5-0.2s0.4,0.1,0.5,0.2l5.2,5.3c0.1,0.1,0.2,0.2,0.2,0.4c0,0.1,0,0.3,0,0.4c-0.1,0.1-0.2,0.3-0.3,0.3
		C14.5,18,14.3,18,14.2,18z"/>
	<path class="st3" d="M12.7,15.8c-0.1,0-0.3,0-0.4-0.1c-0.1-0.1-0.2-0.2-0.3-0.3s-0.1-0.3,0-0.4c0-0.1,0.1-0.3,0.2-0.4l3-3
		c0.1-0.1,0.3-0.2,0.5-0.2s0.4,0.1,0.5,0.2l2.2,2.2c0.1,0.1,0.1,0.2,0.2,0.2c0,0.1,0.1,0.2,0.1,0.3s0,0.2-0.1,0.3
		c0,0.1-0.1,0.2-0.2,0.2c-0.1,0.1-0.2,0.1-0.2,0.2c-0.1,0-0.2,0-0.3,0s-0.2,0-0.3-0.1c-0.1,0-0.2-0.1-0.2-0.2L15.7,13l-2.5,2.5
		c-0.1,0.1-0.2,0.1-0.2,0.2C12.9,15.7,12.8,15.8,12.7,15.8z M20.2,10.5H0.7c-0.2,0-0.4-0.1-0.5-0.2C0,10.2-0.1,10-0.1,9.8
		S0,9.4,0.1,9.2C0.3,9.1,0.5,9,0.7,9h19.5c0.2,0,0.4,0.1,0.5,0.2c0.1,0.1,0.2,0.3,0.2,0.5s-0.1,0.4-0.2,0.5
		C20.6,10.4,20.4,10.5,20.2,10.5z"/>
</g>
</svg>
