<svg id="Layer_1" data-name="Layer 1" xmlns="http://www.w3.org/2000/svg" viewBox="0 0 39 32"><defs><style>.cls-1{fill:#3e4c79;}.cls-2{fill:none;}</style></defs><path class="cls-1" d="M11.22.06A6.63,6.63,0,0,0,6.65,3c-.6.92-.74,1.59-1.85,8.21a22.16,22.16,0,0,0-.54,4A5.2,5.2,0,0,0,4.81,17a4,4,0,0,0,1,1.31,4.71,4.71,0,0,0,3.56,1.47,4.73,4.73,0,0,0,3.55-1.46,5.34,5.34,0,0,0,1.19-1.72c.62-1.2.95-1.64,1.46-1.9.32-.18.39-.18,4-.18h3.67l.38.22c.49.28.67.54,1.22,1.61.24.48.57,1.06.74,1.32a5.1,5.1,0,0,0,4.15,2.14,4.79,4.79,0,0,0,3.56-1.53,4.83,4.83,0,0,0,1.47-3.23,15.14,15.14,0,0,0-.36-3.15C33.82,8.6,33.24,5.43,33,4.5A6,6,0,0,0,29.59.58C28.28,0,28.85,0,19.86,0,15.42,0,11.52,0,11.22.06Zm4.15,1.35c.19,1.18.49,1.68,1.24,2l.48.23,2.22,0c2.52,0,3,0,3.47-.43a2.09,2.09,0,0,0,.9-1.51l.11-.62h2c2.25,0,2.62.06,3.67.57a6.2,6.2,0,0,1,2.11,1.93,4.38,4.38,0,0,1,.39.92c.15.6.77,4,1.35,7.47l.44,2.58-.13.66a3.79,3.79,0,0,1-1.16,2.2,3.77,3.77,0,0,1-4.58.72,4.77,4.77,0,0,1-2.05-2.37c-.73-1.36-1.13-1.83-1.89-2.21l-.47-.23H15.53l-.49.24c-.74.37-1.14.83-1.91,2.24A4.57,4.57,0,0,1,11,18.25a3.91,3.91,0,0,1-5.57-3.11,22.55,22.55,0,0,1,.52-3.82C7,4.75,7.14,4.31,7.68,3.5a5.34,5.34,0,0,1,3.73-2.31c.25,0,1.23-.06,2.18-.07h1.73Zm7.14,0a1.2,1.2,0,0,1-.48,1c-.26.19-.31.19-2.54.19s-2.27,0-2.53-.19a1.2,1.2,0,0,1-.48-1V1.11h6.05Z" transform="translate(0 0)"/><path class="cls-1" d="M25.92,3.24a1.49,1.49,0,1,0,1.62.11A1.67,1.67,0,0,0,25.92,3.24Zm1,1.1a.41.41,0,0,1,.05.32.32.32,0,0,1-.55.16c-.19-.17-.2-.3,0-.47A.35.35,0,0,1,26.93,4.34Z" transform="translate(0 0)"/><path class="cls-1" d="M11,3.68c-.45.27-.6.62-.6,1.38v.6l-.68,0c-.81,0-1.15.21-1.44.72-.16.29-.18.42-.15,1.09s.05.79.26,1.07a1.49,1.49,0,0,0,1.4.54h.61V9.8c0,.78.15,1.1.65,1.39a3.17,3.17,0,0,0,2,0c.47-.26.64-.59.66-1.39l0-.71h.62C15.49,9.12,16,8.6,16,7.43a1.53,1.53,0,0,0-.43-1.32,1.64,1.64,0,0,0-1.34-.42H13.7V5a1.35,1.35,0,0,0-.65-1.37c-.24-.17-.38-.19-1-.19A1.66,1.66,0,0,0,11,3.68Zm1.6,1.94c.06,1.26,0,1.23,1.29,1.29l1,0v1l-1,0c-1.25.06-1.23,0-1.29,1.29l0,1h-1l0-1C11.43,8,11.46,8,10.2,8l-.95,0V6.87l.94,0c1.24,0,1.25,0,1.29-1.19,0-.45,0-.87,0-.93s.18-.1.51-.08l.47,0Z" transform="translate(0 0)"/><path class="cls-1" d="M23.06,6.1a1.54,1.54,0,0,0-.71,1.74,1.48,1.48,0,1,0,1.38-1.91A2,2,0,0,0,23.06,6.1Zm1,1.19c.09.18.09.23-.09.36s-.21.15-.36,0c-.34-.22-.22-.63.16-.63A.31.31,0,0,1,24.08,7.29Z" transform="translate(0 0)"/><path class="cls-1" d="M28.93,6a1.84,1.84,0,0,0-.86,1,1.48,1.48,0,1,0,.86-1Zm.85,1.16a.41.41,0,0,1-.13.56.43.43,0,0,1-.47-.24A.35.35,0,0,1,29.78,7.2Z" transform="translate(0 0)"/><path class="cls-1" d="M26.07,8.9a1.8,1.8,0,0,0-.94,1.42,1.62,1.62,0,0,0,1.73,1.46,1.51,1.51,0,0,0,.62-2.72A1.65,1.65,0,0,0,26.07,8.9Zm.86,1.15a.42.42,0,0,1,.05.32.32.32,0,0,1-.55.17c-.19-.18-.2-.31,0-.48A.36.36,0,0,1,26.93,10.05Z" transform="translate(0 0)"/><path class="cls-1" d="M16.19,11.2a.45.45,0,0,0-.12.64c.14.3.48.4,1.17.36s1-.18,1-.6-.3-.61-1.12-.61C16.45,11,16.37,11,16.19,11.2Z" transform="translate(0 0)"/><path class="cls-1" d="M20.92,11.2a.46.46,0,0,0-.11.64c.14.3.47.4,1.17.36s.94-.18.94-.6S22.63,11,21.81,11C21.19,11,21.1,11,20.92,11.2Z" transform="translate(0 0)"/><path class="cls-1" d="M8.65,30a3.26,3.26,0,0,1-1.57-.34,2.35,2.35,0,0,1-1-1,3.32,3.32,0,0,1-.32-1.5,3.13,3.13,0,0,1,.34-1.52,2.44,2.44,0,0,1,1-1,3.16,3.16,0,0,1,1.56-.35,3.15,3.15,0,0,1,1.06.16,2.36,2.36,0,0,1,.8.46l-.34.79a2.75,2.75,0,0,0-.48-.31,1.66,1.66,0,0,0-.47-.17,2.38,2.38,0,0,0-.56,0,1.77,1.77,0,0,0-1.38.51,2.11,2.11,0,0,0-.47,1.47,2.16,2.16,0,0,0,.44,1.46,1.76,1.76,0,0,0,1.4.51,2.94,2.94,0,0,0,.65-.07,3.83,3.83,0,0,0,.64-.18l-.19.43V27.66H8.5v-.74h2.14v2.66a3.54,3.54,0,0,1-.92.31A5.55,5.55,0,0,1,8.65,30Z" transform="translate(0 0)"/><path class="cls-1" d="M11.18,29.92l2.5-5.54h.85l2.54,5.54H16l-.67-1.55.4.27H12.45l.43-.27-.68,1.55Zm2.92-4.45L13,28.09l-.2-.24h2.64l-.17.24-1.13-2.62Z" transform="translate(0 0)"/><path class="cls-1" d="M17.69,29.92V24.38h.89l2,4.58h-.24l2-4.58h.88v5.54h-.92V25.81h.29l-1.86,4.11h-.61l-1.86-4.11h.29v4.11Z" transform="translate(0 0)"/><path class="cls-1" d="M24.52,29.92V24.38h3.73v.8H25.49v1.53h2.58v.8H25.49v1.61h2.76v.8Z" transform="translate(0 0)"/><path class="cls-1" d="M31,30a4.4,4.4,0,0,1-1.23-.17,3.07,3.07,0,0,1-1-.47l.32-.79a3,3,0,0,0,.55.32,2.62,2.62,0,0,0,.62.19,3.2,3.2,0,0,0,.7.07,1.57,1.57,0,0,0,.9-.2.65.65,0,0,0,.27-.54A.52.52,0,0,0,32,28a1.68,1.68,0,0,0-.67-.26l-.89-.18A2.24,2.24,0,0,1,29.32,27,1.34,1.34,0,0,1,29,26a1.5,1.5,0,0,1,.27-.9,1.73,1.73,0,0,1,.77-.6,3,3,0,0,1,1.15-.21,3.52,3.52,0,0,1,1.1.16,2.48,2.48,0,0,1,.84.49l-.32.75a2.18,2.18,0,0,0-.74-.42,2.72,2.72,0,0,0-.89-.14,1.55,1.55,0,0,0-.87.22A.69.69,0,0,0,30,26a.63.63,0,0,0,.19.47,1.48,1.48,0,0,0,.66.26l.88.18a2.28,2.28,0,0,1,1.16.51,1.27,1.27,0,0,1,.38,1,1.45,1.45,0,0,1-.27.87,1.77,1.77,0,0,1-.75.58A2.93,2.93,0,0,1,31,30Z" transform="translate(0 0)"/><line class="cls-2" y2="32"/><line class="cls-2" x1="39" x2="39" y2="32"/></svg>