<?xml version="1.0" encoding="utf-8"?>
<!-- Generator: Adobe Illustrator 26.0.3, SVG Export Plug-In . SVG Version: 6.00 Build 0)  -->
<svg version="1.1" id="Layer_1" xmlns="http://www.w3.org/2000/svg" xmlns:xlink="http://www.w3.org/1999/xlink" x="0px" y="0px"
	 viewBox="0 0 22 24" style="enable-background:new 0 0 22 24;" xml:space="preserve">
<style type="text/css">
	.st0{display:none;}
	.st1{display:inline;fill:#292D32;}
	.st2{fill:#292D32;}
</style>
<g id="color_00000170982022160797430440000014222258867235869109_" class="st0">
	<path class="st1" d="M15.5,14c-0.1,1.1-0.6,2.1-1.4,2.9c-0.9,0.9-2.2,1.4-3.5,1.4c-2.7,0-4.9-2.2-4.9-4.9c0-1.3,0.5-2.6,1.4-3.5
		C7.9,9.1,8.9,8.6,10,8.5l0.5-0.1l0.8-5.6h-0.8C4.7,2.8,0,7.6,0,13.4C0,19.3,4.7,24,10.6,24s10.6-4.7,10.6-10.6v-0.8l-5.7,0.8
		C15.5,13.4,15.5,14,15.5,14z M9.8,4.3L9.3,7.2c-1,0.2-1.9,0.6-2.7,1.3l-2-2C6.1,5.2,7.9,4.4,9.8,4.3z M3.6,7.4l2,2
		c-0.8,0.9-1.2,2.1-1.4,3.3H1.4C1.6,10.8,2.3,8.9,3.6,7.4z M1.4,14.1h2.8c0.1,1.2,0.6,2.3,1.4,3.3l-2,2C2.3,17.9,1.6,16.1,1.4,14.1z
		 M9.9,22.6c-2-0.1-3.8-0.9-5.3-2.2l2-2c0.9,0.8,2.1,1.2,3.3,1.4V22.6z M11.3,22.6v-2.8c1.2-0.1,2.3-0.6,3.3-1.4l2,2
		C15.1,21.7,13.2,22.4,11.3,22.6z M16.8,14.7l2.9-0.4c-0.2,1.9-0.9,3.7-2.2,5.1l-2-2C16.2,16.6,16.6,15.6,16.8,14.7z"/>
	<path class="st1" d="M23.4,0.6c-0.8-0.8-2.2-0.8-3,0l-1.3,1.3l-1-1l-3,3l1,1l-6.7,6.7v3h3l6.7-6.7l1,1l3-3l-1-1l1.3-1.3
		C24.2,2.8,24.2,1.4,23.4,0.6z M11.8,13.2h-1v-1l6.3-6.3l1,1L11.8,13.2z M20.1,6.9l-3-3l1-1l3,3L20.1,6.9z M22.4,2.6l-1.3,1.3l-1-1
		l1.3-1.3c0.3-0.3,0.7-0.3,1,0C22.7,1.9,22.7,2.3,22.4,2.6z"/>
</g>
<g id="color" class="st0">
	<path class="st1" d="M31.4,16.4c-0.9,0-1.6-0.2-2.3-0.5c-0.6-0.4-1.1-0.9-1.4-1.5c-0.3-0.7-0.5-1.4-0.5-2.3c0-0.9,0.2-1.7,0.5-2.3
		s0.8-1.1,1.4-1.5c0.6-0.4,1.4-0.5,2.3-0.5c0.6,0,1.1,0.1,1.6,0.3c0.5,0.2,0.9,0.4,1.2,0.7L33.7,10c-0.4-0.3-0.7-0.5-1.1-0.6
		C32.3,9.1,31.9,9,31.5,9c-0.9,0-1.5,0.3-2,0.8c-0.4,0.5-0.7,1.2-0.7,2.2s0.2,1.7,0.7,2.2s1.1,0.8,2,0.8c0.4,0,0.8-0.1,1.2-0.2
		c0.4-0.1,0.7-0.4,1.1-0.7l0.5,1.2c-0.3,0.3-0.8,0.6-1.2,0.7C32.6,16.3,32,16.4,31.4,16.4z M35.2,12c0-0.9,0.2-1.7,0.5-2.3
		C36,9,36.4,8.5,37.1,8.2c0.6-0.4,1.3-0.5,2.2-0.5c0.8,0,1.6,0.2,2.2,0.5c0.5,0.3,1,0.8,1.3,1.5c0.3,0.6,0.5,1.4,0.5,2.3
		c0,0.9-0.2,1.7-0.5,2.3s-0.8,1.2-1.4,1.5c-0.6,0.4-1.3,0.5-2.2,0.5c-0.8,0-1.6-0.2-2.2-0.5c-0.6-0.4-1.1-0.9-1.4-1.5
		C35.3,13.6,35.2,12.9,35.2,12z M36.8,12c0,1,0.2,1.7,0.6,2.2c0.4,0.5,1,0.8,1.8,0.8s1.4-0.3,1.8-0.8c0.4-0.5,0.6-1.3,0.6-2.2
		c0-1-0.2-1.7-0.6-2.2C40.6,9.2,40,9,39.2,9s-1.4,0.3-1.8,0.8S36.8,11,36.8,12z M44.9,16.2V7.8h1.5V15h4v1.3L44.9,16.2L44.9,16.2z
		 M50.9,12c0-0.9,0.2-1.7,0.5-2.3s0.8-1.1,1.4-1.5c0.6-0.4,1.3-0.5,2.2-0.5c0.8,0,1.6,0.2,2.2,0.5c0.6,0.4,1.1,0.9,1.4,1.5
		c0.3,0.6,0.5,1.4,0.5,2.3c0,0.9-0.2,1.7-0.5,2.3s-0.8,1.2-1.4,1.5c-0.6,0.4-1.3,0.5-2.2,0.5c-0.8,0-1.6-0.2-2.2-0.5
		c-0.6-0.4-1.1-0.9-1.4-1.5C51,13.6,50.9,12.9,50.9,12z M52.5,12c0,1,0.2,1.7,0.6,2.2c0.4,0.5,1,0.8,1.8,0.8s1.4-0.3,1.8-0.8
		c0.4-0.5,0.6-1.3,0.6-2.2c0-1-0.2-1.7-0.6-2.2c-0.4-0.5-1-0.8-1.8-0.8s-1.4,0.3-1.8,0.8S52.5,11,52.5,12z M60.6,16.2V7.8h3.7
		c0.9,0,1.6,0.2,2.1,0.7c0.5,0.4,0.8,1.1,0.8,1.8c0,0.5-0.1,1-0.3,1.3c-0.2,0.4-0.5,0.7-1,0.9c-0.4,0.2-0.9,0.3-1.5,0.3l0.2-0.2H65
		c0.3,0,0.6,0.1,0.9,0.3s0.5,0.4,0.6,0.8l1.2,2.7H66l-1.2-2.7c-0.1-0.3-0.3-0.5-0.5-0.6S63.8,13,63.5,13h-1.3v3.4h-1.6
		C60.6,16.4,60.6,16.2,60.6,16.2z M62.1,11.7H64c0.5,0,1-0.1,1.2-0.3c0.3-0.2,0.4-0.6,0.4-1s-0.1-0.8-0.4-1C65,9.1,64.6,9,64,9h-1.9
		V11.7z"/>
</g>
<g id="Layer_4">
	<path class="st2" d="M13.9,22.8h-6c-5.4,0-7.8-2.3-7.8-7.8V9c0-5.4,2.3-7.8,7.8-7.8h6c5.4,0,7.8,2.3,7.8,7.8v6
		C21.6,20.4,19.3,22.8,13.9,22.8z M7.8,2.8C3.2,2.8,1.6,4.4,1.6,9v6c0,4.6,1.6,6.2,6.2,6.2h6c4.6,0,6.2-1.6,6.2-6.2V9
		c0-4.6-1.6-6.2-6.2-6.2C13.8,2.8,7.8,2.8,7.8,2.8z"/>
	<path class="st2" d="M10.9,18c-3.2,0-5.8-2.6-5.8-5.8s2.6-5.7,5.8-5.7c0.6,0,1.3,0.1,1.9,0.3c0.4,0.1,0.6,0.5,0.5,0.9
		s-0.5,0.6-0.9,0.5c-0.6-0.1-1-0.2-1.5-0.2c-2.3,0-4.3,1.9-4.3,4.2s1.9,4.2,4.3,4.2s4.2-1.9,4.2-4.2c0-0.9-0.2-1.7-0.7-2.4
		c-0.2-0.3-0.1-0.8,0.2-1s0.8-0.1,1,0.2c0.6,0.9,1,2,1,3.2C16.6,15.4,14,18,10.9,18z"/>
	<path class="st2" d="M13.2,8.4c-0.2,0-0.4-0.1-0.6-0.3L11,6.2c-0.3-0.3-0.2-0.8,0.1-1.1c0.3-0.3,0.8-0.2,1.1,0.1l1.7,1.9
		c0.3,0.3,0.2,0.8-0.1,1.1C13.6,8.3,13.4,8.4,13.2,8.4z"/>
	<path class="st2" d="M11.3,9.8c-0.2,0-0.5-0.1-0.6-0.3c-0.2-0.3-0.2-0.8,0.2-1.1L12.8,7c0.3-0.2,0.8-0.2,1.1,0.2
		c0.2,0.3,0.1,0.8-0.2,1l-1.9,1.4C11.6,9.8,11.4,9.8,11.3,9.8z"/>
</g>
</svg>
