<?xml version="1.0" encoding="utf-8"?>
<!-- Generator: Adobe Illustrator 26.0.3, SVG Export Plug-In . SVG Version: 6.00 Build 0)  -->
<svg version="1.1" id="Layer_1" xmlns="http://www.w3.org/2000/svg" xmlns:xlink="http://www.w3.org/1999/xlink" x="0px" y="0px"
	 viewBox="0 0 81 70" style="enable-background:new 0 0 81 70;" xml:space="preserve">
<style type="text/css">
	.st0{fill:#014E75;}
</style>
<path class="st0" d="M9.3,61.8c-1.1,0-2-0.2-2.8-0.7S5.1,60,4.7,59.2s-0.6-1.8-0.6-2.9s0.2-2.1,0.6-2.9c0.4-0.8,1-1.4,1.8-1.9
	s1.7-0.7,2.8-0.7c0.7,0,1.4,0.1,2,0.3s1.1,0.5,1.5,0.9l-0.6,1.5c-0.5-0.4-0.9-0.7-1.4-0.8c-0.4-0.2-0.9-0.3-1.5-0.3
	c-1.1,0-1.9,0.3-2.5,1C6.2,54,6,55,6,56.1c0,1.2,0.3,2.1,0.8,2.8c0.6,0.7,1.4,1,2.5,1c0.6,0,1.1-0.1,1.5-0.2
	c0.4-0.2,0.9-0.5,1.4-0.8l0.6,1.5c-0.4,0.4-0.9,0.7-1.5,0.9C10.7,61.7,10,61.8,9.3,61.8z M13.9,56.3c0-1.1,0.2-2.1,0.6-2.9
	c0.4-0.8,1-1.4,1.8-1.9s1.7-0.7,2.7-0.7s1.9,0.2,2.7,0.7c0.8,0.4,1.3,1.1,1.8,1.9c0.4,0.8,0.6,1.8,0.6,2.9c0,1.1-0.2,2.1-0.6,2.9
	s-1,1.4-1.8,1.9S20,61.8,19,61.8c-1.1,0-2-0.2-2.7-0.7c-0.8-0.5-1.3-1.1-1.7-1.9C14.1,58.4,13.9,57.4,13.9,56.3z M15.9,56.3
	c0,1.2,0.3,2.1,0.8,2.8c0.5,0.7,1.3,1,2.3,1s1.7-0.3,2.3-1c0.5-0.7,0.8-1.6,0.8-2.8c0-1.2-0.3-2.1-0.8-2.8s-1.3-1-2.3-1
	s-1.8,0.3-2.3,1C16.2,54.2,15.9,55.1,15.9,56.3z M26.1,61.6V51.1h1.5l6.1,7.9h-0.4v-7.9h1.8v10.6h-1.5l-6.1-7.9h0.4v7.9L26.1,61.6
	L26.1,61.6z M40.8,61.6L36.1,51h2.1l3.8,8.9h-0.6l3.8-8.9h2l-4.7,10.6H40.8z M48.2,61.6V51.1h7.1v1.5H50v2.9h4.9V57H50v3.1h5.3v1.5
	H48.2z M57.1,61.6V51.1h4.6c1.2,0,2.1,0.3,2.7,0.8c0.6,0.6,1,1.3,1,2.3c0,0.7-0.1,1.2-0.4,1.7c-0.3,0.5-0.7,0.8-1.2,1.1
	c-0.5,0.2-1.2,0.4-1.9,0.4l0.2-0.3h0.5c0.4,0,0.8,0.1,1.1,0.3c0.3,0.2,0.6,0.6,0.8,1l1.5,3.3h-2.1l-1.5-3.5
	c-0.1-0.4-0.4-0.6-0.6-0.7c-0.3-0.1-0.6-0.2-1-0.2h-1.7v4.3C59.1,61.6,57.1,61.6,57.1,61.6z M59.1,55.9h2.3c0.7,0,1.2-0.1,1.5-0.4
	c0.4-0.3,0.5-0.7,0.5-1.3s-0.2-1-0.5-1.2c-0.4-0.3-0.9-0.4-1.5-0.4H59v3.3H59.1z M69.9,61.6v-9h-3.5V51h8.9v1.6h-3.5v9H69.9z"/>
<path class="st0" d="M45.1,45H34.8c-9.4,0-13.4-4-13.4-13.4V21.3C21.4,12,25.4,8,34.8,8h10.3c9.4,0,13.4,4,13.4,13.4v10.3
	C58.5,41,54.5,45,45.1,45z M34.8,10.6c-8,0-10.8,2.8-10.8,10.7v10.3c0,7.9,2.8,10.8,10.8,10.8h10.3c7.9,0,10.8-2.8,10.8-10.8V21.3
	c0-7.9-2.8-10.8-10.8-10.8H34.8V10.6z"/>
<path class="st0" d="M39.9,36.9c-5.5,0-9.9-4.4-9.9-9.9s4.4-9.9,9.9-9.9c1.1,0,2.2,0.2,3.3,0.5c0.7,0.2,1.1,0.9,0.9,1.6
	c-0.2,0.7-0.9,1.1-1.6,0.9c-0.8-0.2-1.6-0.4-2.5-0.4c-4,0-7.3,3.3-7.3,7.3s3.3,7.3,7.3,7.3s7.3-3.3,7.3-7.3c0-1.5-0.4-2.9-1.2-4.1
	c-0.4-0.6-0.2-1.4,0.4-1.8c0.6-0.4,1.4-0.2,1.8,0.4C49.4,23.1,50,25,50,27C49.9,32.4,45.4,36.9,39.9,36.9z"/>
<path class="st0" d="M44,20.3c-0.4,0-0.7-0.2-1-0.4l-2.9-3.3c-0.5-0.5-0.4-1.4,0.1-1.8c0.5-0.5,1.4-0.4,1.8,0.1l2.9,3.3
	c0.5,0.5,0.4,1.4-0.1,1.8C44.6,20.2,44.4,20.3,44,20.3z"/>
<path class="st0" d="M40.7,22.7c-0.4,0-0.8-0.2-1.1-0.5c-0.4-0.6-0.3-1.4,0.3-1.8l3.3-2.4c0.6-0.4,1.4-0.3,1.8,0.3
	c0.4,0.6,0.3,1.4-0.3,1.8l-3.3,2.4C41.2,22.7,41,22.7,40.7,22.7z"/>
</svg>
