<?xml version="1.0" encoding="utf-8"?>
<!-- Generator: Adobe Illustrator 26.0.3, SVG Export Plug-In . SVG Version: 6.00 Build 0)  -->
<svg version="1.1" id="Layer_1" xmlns="http://www.w3.org/2000/svg" xmlns:xlink="http://www.w3.org/1999/xlink" x="0px" y="0px"
	 viewBox="0 0 81 70" style="enable-background:new 0 0 81 70;" xml:space="preserve">
<style type="text/css">
	.st0{fill:#014E75;}
</style>
<path class="st0" d="M43,28.1H31c-0.7,0-1.3-0.6-1.3-1.3c0-0.7,0.6-1.3,1.3-1.3h12c0.7,0,1.3,0.6,1.3,1.3S43.7,28.1,43,28.1z"/>
<path class="st0" d="M38.5,35H31c-0.7,0-1.3-0.6-1.3-1.3s0.6-1.3,1.3-1.3h7.5c0.7,0,1.3,0.6,1.3,1.3S39.2,35,38.5,35z"/>
<path class="st0" d="M41.3,17.5h-6.9c-1.6,0-4.7,0-4.7-4.7S32.8,8,34.4,8h6.9c1.6,0,4.7,0,4.7,4.8C46,14.4,46,17.5,41.3,17.5z
	 M34.4,10.6c-1.7,0-2.1,0-2.1,2.1s0.4,2.1,2.1,2.1h6.9c2.1,0,2.1-0.4,2.1-2.1c0-2.1-0.4-2.1-2.1-2.1H34.4z"/>
<path class="st0" d="M43,44.9H32.7c-9.6,0-11.6-4.7-11.6-12.2V21.9c0-8.2,2.8-11.8,9.8-12.1c0.7,0,1.3,0.5,1.4,1.3
	c0,0.8-0.5,1.4-1.2,1.4c-4.9,0.3-7.4,1.8-7.4,9.5v10.8c0,6.7,1.3,9.5,9,9.5H43c7.8,0,9-2.8,9-9.5V21.9c0-7.6-2.5-9.2-7.4-9.5
	c-0.7,0-1.3-0.7-1.2-1.4c0.1-0.7,0.7-1.3,1.4-1.3c7,0.4,9.8,3.9,9.8,12.1v10.8C54.6,40.3,52.6,44.9,43,44.9z"/>
<path class="st0" d="M14.6,61.7v-11h1.5l6.4,8.3h-0.4v-8.3H24v11h-1.5l-6.4-8.3h0.4v8.3H14.6z M26.4,61.7v-11h7.4v1.6h-5.5v3.1h5.1
	V57h-5.1v3.2h5.5v1.6L26.4,61.7L26.4,61.7z M38.8,61.7l-3.9-11H37l3,9h-0.6l3.2-9h1.5l3,9h-0.6l3.1-9h2l-3.9,11H46l-2.9-8.5h0.3
	l-3,8.5H38.8z M56.9,61.9c-0.9,0-1.7-0.1-2.5-0.3c-0.7-0.2-1.4-0.5-1.9-0.9l0.6-1.6c0.4,0.3,0.7,0.5,1.1,0.6
	c0.4,0.2,0.8,0.3,1.2,0.4s0.9,0.1,1.4,0.1c0.8,0,1.4-0.1,1.8-0.4s0.5-0.6,0.5-1.1c0-0.4-0.1-0.7-0.4-0.9c-0.3-0.2-0.7-0.4-1.3-0.5
	L55.7,57c-1-0.2-1.8-0.6-2.3-1c-0.5-0.5-0.8-1.1-0.8-2c0-0.7,0.2-1.3,0.5-1.8c0.4-0.5,0.9-0.9,1.5-1.2s1.4-0.4,2.3-0.4
	c0.8,0,1.5,0.1,2.2,0.3s1.2,0.5,1.7,1l-0.6,1.5c-0.4-0.4-0.9-0.7-1.5-0.8c-0.5-0.2-1.1-0.3-1.8-0.3s-1.3,0.1-1.7,0.4
	c-0.4,0.3-0.6,0.7-0.6,1.2c0,0.4,0.1,0.7,0.4,0.9c0.3,0.2,0.7,0.4,1.3,0.5l1.8,0.3c1,0.2,1.8,0.6,2.3,1c0.5,0.5,0.8,1.1,0.8,1.9
	c0,0.7-0.2,1.2-0.5,1.7c-0.4,0.5-0.9,0.9-1.5,1.2C58.5,61.8,57.8,61.9,56.9,61.9z"/>
</svg>
