<?xml version="1.0" encoding="utf-8"?>
<!-- Generator: Adobe Illustrator 26.0.3, SVG Export Plug-In . SVG Version: 6.00 Build 0)  -->
<svg version="1.1" id="Layer_1" xmlns="http://www.w3.org/2000/svg" xmlns:xlink="http://www.w3.org/1999/xlink" x="0px" y="0px"
	 viewBox="0 0 81 70" style="enable-background:new 0 0 81 70;" xml:space="preserve">
<style type="text/css">
	.st0{fill:none;stroke:#EFEFEF;}
	.st1{fill:#014E75;}
</style>
<line class="st0" x1="0.5" y1="0" x2="0.5" y2="70"/>
<line class="st0" x1="80.5" y1="0" x2="80.5" y2="70"/>
<path class="st1" d="M43,26.5h-7c-0.4,0-0.8-0.3-0.8-0.8S35.6,25,36,25h7c0.4,0,0.8,0.3,0.8,0.8S43.4,26.5,43,26.5z"/>
<path class="st1" d="M40.4,30.5H36c-0.4,0-0.8-0.3-0.8-0.8S35.6,29,36,29h4.4c0.4,0,0.8,0.3,0.8,0.8S40.8,30.5,40.4,30.5z"/>
<path class="st1" d="M42,20.2h-4c-1,0-2.8,0-2.8-2.8s1.8-2.8,2.8-2.8h4c1,0,2.8,0,2.8,2.8C44.8,18.5,44.8,20.2,42,20.2z M38,16.2
	c-1,0-1.2,0-1.2,1.2s0.3,1.2,1.2,1.2h4c1.2,0,1.2-0.3,1.2-1.2c0-1.2-0.3-1.2-1.2-1.2H38z"/>
<path class="st1" d="M43,36.2h-6c-5.6,0-6.8-2.6-6.8-6.8v-6c0-4.6,1.6-6.5,5.7-6.7c0.4,0,0.8,0.3,0.8,0.7s-0.3,0.8-0.7,0.8
	c-2.8,0.2-4.3,1-4.3,5.2v6c0,3.7,0.7,5.2,5.2,5.2h6c4.5,0,5.2-1.5,5.2-5.2v-6c0-4.2-1.5-5.1-4.3-5.2c-0.4,0-0.7-0.4-0.7-0.8
	s0.4-0.7,0.8-0.7c4.1,0.2,5.7,2.2,5.7,6.7v6C49.8,33.7,48.6,36.2,43,36.2z"/>
<path class="st1" d="M22.3,57.9v-8.5h1.2l4.9,6.3H28v-6.3h1.4v8.5h-1.2l-4.9-6.3h0.3v6.3H22.3z M31.3,57.9v-8.5H37v1.2h-4.2V53h3.9
	v1.2h-3.9v2.5H37v1.2H31.3z M40.8,57.9l-3-8.5h1.6l2.3,6.9h-0.5l2.5-6.9h1.2l2.3,6.9h-0.4l2.4-6.9h1.5l-3,8.5h-1.3l-2.2-6.5h0.3
	l-2.3,6.5H40.8z M54.7,58c-0.7,0-1.3-0.1-1.9-0.3c-0.6-0.2-1.1-0.4-1.5-0.7l0.5-1.2c0.3,0.2,0.6,0.4,0.9,0.5
	c0.3,0.1,0.6,0.2,0.9,0.3c0.3,0.1,0.7,0.1,1.1,0.1c0.6,0,1.1-0.1,1.4-0.3s0.4-0.5,0.4-0.8c0-0.3-0.1-0.5-0.3-0.7
	c-0.2-0.2-0.5-0.3-1-0.4l-1.4-0.3c-0.8-0.2-1.4-0.4-1.7-0.8c-0.4-0.4-0.6-0.9-0.6-1.5c0-0.5,0.1-1,0.4-1.4c0.3-0.4,0.7-0.7,1.2-0.9
	c0.5-0.2,1.1-0.3,1.8-0.3c0.6,0,1.2,0.1,1.7,0.3c0.5,0.2,0.9,0.4,1.3,0.7l-0.5,1.2c-0.3-0.3-0.7-0.5-1.1-0.6
	c-0.4-0.1-0.9-0.2-1.4-0.2c-0.6,0-1,0.1-1.3,0.3c-0.3,0.2-0.5,0.5-0.5,0.9c0,0.3,0.1,0.5,0.3,0.7c0.2,0.2,0.5,0.3,1,0.4l1.3,0.3
	c0.8,0.2,1.4,0.4,1.8,0.8c0.4,0.4,0.6,0.8,0.6,1.5c0,0.5-0.1,0.9-0.4,1.3c-0.3,0.4-0.7,0.7-1.2,0.9C55.9,57.9,55.4,58,54.7,58z"/>
</svg>
