<svg width="25" height="25" viewBox="0 0 25 25" fill="none" xmlns="http://www.w3.org/2000/svg">
<path d="M8.92268 24.0275C10.0827 24.3779 11.2548 24.5833 12.4993 24.5833C15.704 24.5833 18.7775 23.3102 21.0436 21.0442C23.3096 18.7781 24.5827 15.7047 24.5827 12.5C24.5827 10.9132 24.2701 9.34189 23.6629 7.87587C23.0557 6.40985 22.1656 5.07779 21.0436 3.95575C19.9215 2.83371 18.5895 1.94366 17.1234 1.33642C15.6574 0.729171 14.0862 0.416626 12.4993 0.416626C10.9125 0.416626 9.34128 0.729171 7.87526 1.33642C6.40924 1.94366 5.07718 2.83371 3.95514 3.95575C1.68908 6.22182 0.416016 9.29526 0.416016 12.5C0.416016 17.6354 3.64227 22.0458 8.19768 23.7858C8.08893 22.8433 7.98018 21.2845 8.19768 20.2091L9.58727 14.24C9.58727 14.24 9.23685 13.5391 9.23685 12.4275C9.23685 10.76 10.276 9.51538 11.4602 9.51538C12.4993 9.51538 12.9827 10.2766 12.9827 11.2554C12.9827 12.2945 12.2939 13.7808 11.9435 15.2066C11.7381 16.3908 12.5718 17.43 13.7802 17.43C15.931 17.43 17.5985 15.1341 17.5985 11.8958C17.5985 8.99579 15.5202 7.01413 12.5356 7.01413C9.1281 7.01413 7.12227 9.55163 7.12227 12.222C7.12227 13.2612 7.4606 14.3125 8.01643 15.0012C8.12518 15.0737 8.12518 15.1704 8.08893 15.3516L7.73852 16.6687C7.73852 16.8741 7.6056 16.9466 7.40018 16.8016C5.85352 16.125 4.95935 13.9258 4.95935 12.1495C4.95935 8.33121 7.66602 4.86329 12.886 4.86329C17.0427 4.86329 20.281 7.84788 20.281 11.8112C20.281 15.9679 17.7073 19.3029 14.0218 19.3029C12.8498 19.3029 11.7018 18.6745 11.291 17.9375L10.4814 20.8012C10.2035 21.8404 9.44227 23.23 8.92268 24.0637V24.0275Z" fill="#BFDAE9"/>
</svg>
