<?xml version="1.0" encoding="utf-8"?>
<!-- Generator: Adobe Illustrator 26.0.3, SVG Export Plug-In . SVG Version: 6.00 Build 0)  -->
<svg version="1.1" id="Layer_1" xmlns="http://www.w3.org/2000/svg" xmlns:xlink="http://www.w3.org/1999/xlink" x="0px" y="0px"
	 width="5000px" height="5000px" viewBox="0 0 5000 5000" style="enable-background:new 0 0 5000 5000;" xml:space="preserve">
<style type="text/css">
	.st0{fill-rule:evenodd;clip-rule:evenodd;fill:#BFDAE9;}
</style>
<g>
	<path class="st0" d="M2491.5,4.6C1117.7,4.6,4,1118.3,4,2492.1c0,1373.8,1113.7,2487.5,2487.5,2487.5
		c1373.8,0,2487.5-1113.7,2487.5-2487.5C4979,1118.3,3865.3,4.6,2491.5,4.6L2491.5,4.6z M3069.5,1820.1l-0.1,80.1h-0.1v1076.1
		c0,256.6-101.1,500.6-282.4,682c-181.4,181.4-425.4,282.4-681.9,282.4c-256.5,0-500.5-101-681.9-282.4
		c-181.4-181.4-282.5-425.4-282.5-682c0-256.5,101.1-500.5,282.5-681.9c181.4-181.4,425.4-282.5,681.9-282.5h179v507h-179
		c-121.8,0-237.3,47.9-323.5,134c-86.1,86.1-133.9,201.6-133.9,323.4c0,121.8,47.8,237.3,133.9,323.5c86.1,86.1,201.7,134,323.5,134
		c121.8,0,237.3-47.9,323.5-134c86.1-86.1,133.9-201.6,133.9-322.4V1043.6h504.9l25.3,46.8c78.6,145.7,184.6,283.8,316.1,385.7
		c101.7,78.8,216.7,134.4,343.8,156.7l89.9,15.8l-96.4,488.8l-86.4-15.4c-102.8-18.4-203.8-49.6-298.4-94.2
		C3252.7,1976.6,3152,1907.5,3069.5,1820.1z"/>
</g>
</svg>
