<?xml version="1.0" encoding="utf-8"?>
<!-- Generator: Adobe Illustrator 26.0.3, SVG Export Plug-In . SVG Version: 6.00 Build 0)  -->
<svg version="1.1" id="Layer_1" xmlns="http://www.w3.org/2000/svg" xmlns:xlink="http://www.w3.org/1999/xlink" x="0px" y="0px"
	 width="150px" height="150px" viewBox="0 0 150 150" style="enable-background:new 0 0 150 150;" xml:space="preserve">
<style type="text/css">
	.st0{fill:#BFDAE9;}
	.st1{fill:#00456C;}
</style>
<path class="st0" d="M67,0.5C40.6,3.3,17.1,20.6,6.4,45.2c-6.9,15.8-8,34.1-3.1,50.9c6.1,20.9,21.7,38.6,42,47.5
	c15.9,6.9,34.1,8,50.9,3.1c25.1-7.2,44.9-27.9,51.4-53.6C157.7,53,132.8,11.9,92.5,2.3C83.6,0.2,75.9-0.4,67,0.5z M68,47
	c6.4,8.5,11.8,15.5,12,15.5s6.9-7,14.7-15.5L109,31.5h8.2l-1.8,1.9c-1,1-7.5,8.1-14.4,15.6c-6.9,7.5-13.8,14.9-15.1,16.2l-2.4,2.6
	l18.8,24.9c10.3,13.8,18.8,25.1,18.8,25.4c0,0.2-6.1,0.4-13.6,0.4l-13.6-0.1l-12.7-17c-8.8-11.8-12.9-16.8-13.2-16.5
	c-0.3,0.2-7.4,7.9-15.8,17l-15.3,16.6h-3.9c-2.1,0-3.9-0.1-3.9-0.2s7.9-8.9,17.6-19.3c9.7-10.4,17.7-19.2,17.7-19.3
	c0.1-0.2-7.9-11.1-17.6-24.1C37,42.5,29,31.7,29,31.6c0-0.1,6.1-0.1,13.7-0.1h13.7L68,47z"/>
<path class="st1" d="M41.4,38.2c0.2,0.3,12.8,17.2,27.9,37.4l27.5,36.8l6.1,0.1c3.8,0,6.1-0.2,6-0.5c0-0.2-12.6-17.1-27.8-37.5
	l-27.7-37h-6.2C42.1,37.5,41,37.6,41.4,38.2L41.4,38.2z"/>
</svg>
