<svg width="24" height="17" viewBox="0 0 24 17" fill="none" xmlns="http://www.w3.org/2000/svg">
<path d="M9.66732 12.125L15.7223 8.49996L9.66732 4.87496V12.125ZM23.154 2.66371C23.3056 3.23163 23.4107 3.99288 23.4806 4.95954C23.5623 5.92621 23.5973 6.75996 23.5973 7.48496L23.6673 8.49996C23.6673 11.1462 23.4806 13.0916 23.154 14.3362C22.8623 15.4237 22.1856 16.1245 21.1357 16.4266C20.5873 16.5837 19.584 16.6925 18.044 16.765C16.5273 16.8495 15.139 16.8858 13.8557 16.8858L12.0007 16.9583C7.11232 16.9583 4.06732 16.765 2.86565 16.4266C1.81565 16.1245 1.13898 15.4237 0.847318 14.3362C0.695651 13.7683 0.590651 13.007 0.520651 12.0404C0.438984 11.0737 0.403984 10.24 0.403984 9.51496L0.333984 8.49996C0.333984 5.85371 0.520651 3.90829 0.847318 2.66371C1.13898 1.57621 1.81565 0.875376 2.86565 0.573293C3.41398 0.416209 4.41732 0.307459 5.95732 0.234959C7.47398 0.150376 8.86232 0.114126 10.1457 0.114126L12.0007 0.041626C16.889 0.041626 19.934 0.234959 21.1357 0.573293C22.1856 0.875376 22.8623 1.57621 23.154 2.66371Z" fill="#BFDAE9"/>
</svg>
